<?xml version="1.0" encoding="UTF-8"?>
<svg width="577px" height="694px" viewBox="0 0 577 694" version="1.1" xmlns="http://www.w3.org/2000/svg" xmlns:xlink="http://www.w3.org/1999/xlink">
    <!-- Generator: Sketch 49 (51002) - http://www.bohemiancoding.com/sketch -->
    <title>bg-oxyn-symbol</title>
    <desc>Created with Sketch.</desc>
    <defs></defs>
    <g id="bg-oxyn-symbol" stroke="none" stroke-width="1" fill="none" fill-rule="evenodd" opacity="0.200000003">
        <path d="M310,509 L431.750265,299 C435.185989,313.727723 437,329.56564 437,346.257059 C437,434.80308 386.028214,498.976164 310,509 M190,474.295466 L352.243996,196 C365.489589,202.075451 377.464173,210.109689 388,219.92289 L225.826974,498 C212.587833,492.001616 200.568086,483.99949 190,474.295466 M140,345.885864 C140,256.981261 191.388783,192.73066 268,183 L145.477275,394 C141.88783,379.012472 140,362.908101 140,345.885864 M513.824396,157.958281 L574.225591,53.9853355 L483.453608,53.9853355 L454.643426,103.607182 C442.903566,95.6887344 430.463681,88.6943191 417.355884,82.5854353 L465.310772,0 L374.545212,0 L340.102722,59.2792736 C323.514069,56.6162623 306.289613,55.2430468 288.519267,55.2430468 C119.684921,55.2430468 0,178.607848 0,347 C0,420.89696 23.0301634,486.124695 63.1756044,536.08022 L2.77440898,640.014665 L93.6170362,640.014665 L122.427218,590.431319 C134.167078,598.356184 146.574852,605.350599 159.644116,611.414565 L111.689228,694 L202.493322,694 L236.897278,634.765645 C253.485931,637.428656 270.742498,638.795455 288.519267,638.795455 C457.308657,638.795455 577,515.398569 577,347 C577,273.109457 553.963414,207.875305 513.824396,157.958281" id="Mask" fill="#72EAC5"></path>
    </g>
</svg>