<?xml version="1.0" encoding="UTF-8"?>
<svg enable-background="new 0 0 2616.9 705.6"
      version="1.1" viewBox="0 0 2616.9 705.6" xml:space="preserve"
      xmlns="http://www.w3.org/2000/svg">
  <style type="text/css">
  	.st0{fill:#F1F4F6;}
  </style>
  <path class="st0" d="m1805.2 0l-198.8 245.6-72.2-245.6-156.3 193.1 79 269.2v0.1l-40.3 242.6h210.9l38.4-230.6 384.1-474.4h-244.8zm-365.8 0h-244.8l-144.4 178.4-92.5-178.4h-230.1l175.3 338.3-297 366.7h244.8l147.6-182.4 94.4 182.4h230.3l-177.3-342.2 293.7-362.8zm966.4 0l-64.8 389.9-196.2-389.9-226.1 279.2-70.8 425.8h211l61.1-367.5 168.6 367.5h211.1v-0.1l117.2-704.9h-211.1zm-1743.6 144.8c-25-45.6-61-81.1-108-106.3-47-25.3-102.7-37.9-166.9-37.9-66.2 0-126 13.4-179.5 40.3s-97.5 64.2-131.9 112.2c-34.4 47.9-57.1 103.2-68.1 166-5.2 26.6-7.8 55.4-7.8 86.5 0 60.2 12.3 112.8 37 157.8 24.6 45 60.5 80 107.5 104.9 47 25 103.6 37.4 169.8 37.4s125.9-13.4 179.1-40.3 96.8-64.4 130.9-112.7c34-48.2 56.6-103.4 67.6-165.6 5.2-31.1 7.8-58.9 7.8-83.5 0-60.2-12.5-113.1-37.5-158.8zm-158.8 215.9c-8.3 49.7-28.2 89.4-59.8 119.3s-70 44.9-115.3 44.9c-44 0-77.6-12.1-100.9-36.3s-34.9-57.6-34.9-100.2c0-15.9 1.3-30.5 3.8-43.9 8.9-50.3 29-90.2 60.3-119.8 31.2-29.6 69.8-44.4 115.8-44.4 43.4 0 76.8 11.9 100.4 35.8 23.6 23.8 35.4 56.8 35.4 98.8 0 12.8-1.6 28-4.8 45.8z"/>
</svg>
