<?xml version="1.0" encoding="utf-8"?>
<!-- Generator: Adobe Illustrator 19.2.0, SVG Export Plug-In . SVG Version: 6.00 Build 0)  -->
<svg version="1.1" id="icon" xmlns="http://www.w3.org/2000/svg"
	 viewBox="0 0 20 24" style="fill:#ffffff;"  >
<path id="youtube" d="M16.9,17.6h-1.3l0-0.8c0-0.3,0.3-0.6,0.6-0.6h0.1c0.3,0,0.6,0.3,0.6,0.6L16.9,17.6z M12,15.9
	c-0.3,0-0.6,0.2-0.6,0.5v3.7c0,0.3,0.3,0.5,0.6,0.5c0.3,0,0.6-0.2,0.6-0.5v-3.7C12.6,16.1,12.3,15.9,12,15.9z M20,13.8v7.1
	c0,1.7-1.5,3.1-3.3,3.1H3.3C1.5,24,0,22.6,0,20.9v-7.1c0-1.7,1.5-3.1,3.3-3.1h13.5C18.5,10.7,20,12.1,20,13.8z M4.2,21.7l0-7.5
	l1.7,0v-1.1l-4.4,0v1.1l1.4,0v7.5H4.2z M9.2,15.3H7.8v4c0,0.6,0,0.9,0,1c-0.1,0.3-0.6,0.6-0.8,0c0-0.1,0-0.4,0-1l0-4H5.6l0,3.9
	c0,0.6,0,1.1,0,1.3c0,0.4,0,0.8,0.4,1c0.6,0.5,1.8-0.1,2.1-0.7l0,0.8l1.1,0L9.2,15.3L9.2,15.3z M13.6,19.9l0-3.3c0-1.3-0.9-2-2.2-1
	l0-2.5l-1.4,0l0,8.5l1.1,0l0.1-0.5C12.7,22.4,13.6,21.5,13.6,19.9z M18,19.5l-1,0c0,0,0,0.1,0,0.1v0.6c0,0.3-0.3,0.6-0.6,0.6h-0.2
	c-0.3,0-0.6-0.3-0.6-0.6v-0.1v-0.6v-0.8H18v-0.9c0-0.7,0-1.3-0.1-1.7c-0.2-1.2-1.8-1.4-2.7-0.8c-0.3,0.2-0.5,0.4-0.6,0.8
	c-0.1,0.3-0.2,0.8-0.2,1.4v2C14.5,22.7,18.4,22.3,18,19.5z M12.6,8.7C12.7,8.9,12.8,9,13,9.2c0.1,0.1,0.3,0.2,0.6,0.2
	c0.2,0,0.4-0.1,0.5-0.2c0.2-0.1,0.3-0.3,0.4-0.5l0,0.5H16V2.6h-1.2v5.1c0,0.3-0.2,0.5-0.5,0.5c-0.3,0-0.5-0.2-0.5-0.5V2.6h-1.3V7
	c0,0.6,0,0.9,0,1.1C12.5,8.4,12.6,8.6,12.6,8.7z M7.9,5c0-0.6,0.1-1.1,0.2-1.5c0.1-0.4,0.3-0.6,0.6-0.9c0.3-0.2,0.6-0.3,1.1-0.3
	c0.4,0,0.7,0.1,0.9,0.2c0.3,0.1,0.5,0.3,0.6,0.5c0.1,0.2,0.2,0.5,0.3,0.7c0.1,0.2,0.1,0.6,0.1,1.1v1.7c0,0.6,0,1.1-0.1,1.3
	c0,0.3-0.1,0.6-0.3,0.8c-0.2,0.2-0.4,0.4-0.6,0.5c-0.2,0.1-0.5,0.2-0.8,0.2c-0.4,0-0.7,0-0.9-0.2C8.6,9.1,8.4,9,8.3,8.8
	C8.2,8.6,8.1,8.3,8,8.1C8,7.8,7.9,7.3,7.9,6.8L7.9,5L7.9,5z M9.1,7.6c0,0.4,0.3,0.7,0.6,0.7c0.3,0,0.6-0.3,0.6-0.7V4.1
	c0-0.4-0.3-0.7-0.6-0.7c-0.3,0-0.6,0.3-0.6,0.7V7.6z M4.8,9.4h1.5l0-5.1L8,0H6.4L5.5,3.2L4.6,0H3l1.8,4.3L4.8,9.4z"/>
</svg>
