<?xml version="1.0" encoding="UTF-8"?>
<svg width="60px" height="61px" viewBox="0 0 60 61" version="1.1" xmlns="http://www.w3.org/2000/svg" xmlns:xlink="http://www.w3.org/1999/xlink">
    <!-- Generator: Sketch 49 (51002) - http://www.bohemiancoding.com/sketch -->
    <title>ico</title>
    <desc>Created with Sketch.</desc>
    <defs>
        <linearGradient x1="100%" y1="0%" x2="-38.3418912%" y2="100%" id="linearGradient-1">
            <stop stop-color="#3DDAD7" offset="0%"></stop>
            <stop stop-color="#89E200" offset="100%"></stop>
        </linearGradient>
    </defs>
    <g id="Page-1" stroke="none" stroke-width="1" fill="none" fill-rule="evenodd">
        <g id="05" transform="translate(-721.000000, -2222.000000)">
            <g id="3-screen" transform="translate(0.000000, 1860.000000)">
                <g id="block" transform="translate(710.000000, 355.000000)">
                    <g id="icons" transform="translate(4.000000, 0.000000)">
                        <g id="2">
                            <g id="ico">
                                <rect id="Path" x="0" y="0" width="80" height="80"></rect>
                                <circle id="Oval" fill="#D0F6E5" opacity="0.5" cx="29" cy="29" r="22"></circle>
                                <circle id="Oval" fill="#4C64D8" opacity="0.0799999982" cx="54" cy="55" r="13"></circle>
                                <path d="M49.974,21.792 C53.0282532,21.792 55.9631574,20.6408742 59.4275326,18.2220725 C60.0904189,17.7592501 61,18.2335305 61,19.042 L61,48.668 C61,48.7576504 60.9879444,48.8468937 60.9641574,48.9333309 C60.7892811,49.5687952 60.3554126,50.6176648 59.5641133,51.9403207 C58.2666687,54.1089983 56.4163696,56.2687409 53.9184682,58.2760436 C50.4095439,61.0957997 45.898688,63.3848527 40.2699432,64.9628762 C40.0933847,65.0123746 39.9066153,65.0123746 39.7300568,64.9628762 C34.101312,63.3848527 29.5904561,61.0957997 26.0815318,58.2760436 C23.5836304,56.2687409 21.7333313,54.1089983 20.4358867,51.9403207 C19.6445874,50.6176648 19.2107189,49.5687952 19.0358426,48.9333309 C19.0120556,48.8468937 19,48.7576504 19,48.668 L19,19.042 C19,18.2332725 19.9100956,17.7590513 20.5729314,18.2223967 C24.0300591,20.6390499 26.9700596,21.792 30.024,21.792 C33.6313411,21.792 36.9696162,20.1499749 39.2027469,17.3732906 C39.3925637,17.1372717 39.6791216,17 39.982,17 C40.3167328,17 40.6031692,17.1371403 40.7929926,17.3729669 C43.0284165,20.150139 46.3668509,21.792 49.974,21.792 Z M49.974,23.792 C46.1470088,23.792 42.5768741,22.2116877 39.9982607,19.4992535 C37.421317,22.2115266 33.851175,23.792 30.024,23.792 C27.0017074,23.792 24.1332746,22.8348401 21,20.8988672 L21,48.5185216 C21.039548,48.6374872 21.1047242,48.8148521 21.1997028,49.0444614 C21.4309809,49.6035721 21.7445908,50.2322266 22.1521846,50.9135192 C23.3305893,52.8832215 25.0257314,54.8618588 27.3343369,56.7170441 C30.5744098,59.3207524 34.7544442,61.4580553 40,62.9606246 C45.2455558,61.4580553 49.4255902,59.3207524 52.6656631,56.7170441 C54.9742686,54.8618588 56.6694107,52.8832215 57.8478154,50.9135192 C58.2554092,50.2322266 58.5690191,49.6035721 58.8002972,49.0444614 C58.8952758,48.8148521 58.960452,48.6374872 59,48.5185216 L59,20.8980279 C55.8624163,22.8357902 52.9973738,23.792 49.974,23.792 Z M44.8448339,47.9351523 C44.2369459,48.8095851 43.702392,49.7279612 43.2431915,50.6463621 C43.0475811,51.037583 42.8803314,51.3999574 42.7416302,51.7235934 C42.6601568,51.9136981 42.6073731,52.0456574 42.583388,52.1096176 C42.2329275,53.044179 40.8799928,52.9450174 40.6695405,51.9693445 C40.6318002,51.7943776 40.5436785,51.44594 40.3968744,50.9490158 C40.1487643,50.1091764 39.825343,49.1703296 39.4184425,48.1574514 C38.8903994,46.8430185 38.2735503,45.5283685 37.562006,44.2319284 C36.3898299,46.0553343 34.8845988,46.8836713 33.1648946,46.675361 C31.5179014,46.4758582 29.8767915,45.3281263 28.4021927,43.5914222 C25.6763122,40.3775519 24.9145637,32.4880574 27.0998597,28.3552618 C27.3983789,27.7907072 28.1423789,27.6468171 28.6298688,28.059357 C29.5886375,28.8707181 30.6593988,29.4528497 32.0107747,29.9537379 C32.6457789,30.1891026 32.927573,30.2777866 34.3946504,30.720584 C37.3259582,31.6053195 38.6960863,32.2644381 39.9725299,33.7688873 C42.8379383,37.1411928 42.902096,40.491135 39.0206292,42.7424838 C39.8973526,44.280881 40.6453242,45.8462564 41.2742887,47.411908 C41.4914665,47.9525186 41.6865065,48.4741074 41.8605378,48.9735192 C42.3704234,48.0366819 42.9531377,47.1094788 43.6103498,46.2268398 C41.1496255,44.0373867 41.716153,41.1779869 44.3863168,39.3971384 C45.4309317,38.7007284 46.2989364,38.3856512 48.074523,37.9260822 C50.219397,37.3709318 51.089938,37.0361437 52.2828348,36.1365489 C52.7923664,35.7522976 53.5265752,35.9371785 53.7933654,36.5169152 C55.2545779,39.6921388 54.3685147,45.4860552 52.1904881,47.7807972 C49.7957978,50.3038133 46.75538,50.6583965 44.8448339,47.9351523 Z M44.8856888,44.6851602 C46.013029,43.4656045 47.2526404,42.4847282 48.6116099,41.8052434 C49.1055884,41.5582541 49.7062615,41.7584785 49.9532507,42.252457 C50.20024,42.7464355 50.0000156,43.3471085 49.5060371,43.5940978 C48.3064696,44.1938815 47.1886774,45.102483 46.1610621,46.2563751 C47.2904746,48.3876346 49.0025552,48.2343637 50.7398649,46.4039557 C52.1239055,44.9457477 52.8736381,41.1009537 52.3395359,38.5018193 C51.3424919,39.075429 50.3058983,39.4144483 48.5756623,39.8622794 C47.0048455,40.2688485 46.3012164,40.5242536 45.4959564,41.0610795 C43.8768354,42.1409774 43.5414914,43.4514023 44.8856888,44.6851602 Z M37.9854844,41.0339027 C40.685387,39.4972691 40.5769241,37.568808 38.4481973,35.0636499 C37.4983721,33.9440667 36.3961182,33.4137843 33.8167535,32.6352733 C32.302575,32.1782598 32.0058873,32.0848886 31.3156839,31.8290643 C30.2260929,31.4252068 29.2760948,30.9650416 28.4076918,30.3892953 C27.2071671,34.0375449 27.9510799,39.9675673 29.9271092,42.2973475 C31.1066247,43.686518 32.3602783,44.5632772 33.4053995,44.6898743 C34.4972038,44.8221262 35.4883171,44.1316238 36.3816377,42.2382726 C35.8230768,41.361772 35.2181567,40.4984272 34.5649537,39.6542575 C33.3926961,38.1392853 32.0934964,36.7275797 30.6609176,35.4382589 C30.2504076,35.0687998 30.2171292,34.43651 30.5865882,34.026 C30.9560472,33.61549 31.5883371,33.5822115 31.9988471,33.9516706 C33.5226606,35.3231027 34.902894,36.8228592 36.1467165,38.4303185 C36.805834,39.2821319 37.4181148,40.151752 37.9854844,41.0339027 Z M39.9980068,18.0128734 L40.014,18.0257358 L40.014,19 L39.982,19 L39.982,18.0257577 L39.9980068,18.0128734 Z" id="Combined-Shape" fill="url(#linearGradient-1)" fill-rule="nonzero"></path>
                            </g>
                        </g>
                    </g>
                </g>
            </g>
        </g>
    </g>
</svg>