<?xml version="1.0" encoding="UTF-8"?>
<svg width="90px" height="90px" viewBox="0 0 90 90" version="1.1" xmlns="http://www.w3.org/2000/svg" xmlns:xlink="http://www.w3.org/1999/xlink">
    <!-- Generator: Sketch 49 (51002) - http://www.bohemiancoding.com/sketch -->
    <title>icon-trees_2</title>
    <desc>Created with Sketch.</desc>
    <defs>
        <linearGradient x1="50%" y1="130.651573%" x2="50%" y2="0%" id="linearGradient-1">
            <stop stop-color="#009EFD" offset="0%"></stop>
            <stop stop-color="#2AF598" offset="100%"></stop>
        </linearGradient>
        <path d="M37.5474853,87.9868924 C33.0603569,85.0248098 25.1244147,81.7379443 19.8570859,80.6593683 C15.1177005,79.6889232 10.2943596,74.865975 9.32438072,70.1285165 C8.24623595,64.8625051 4.95986636,56.9287455 1.99799452,52.4419008 C-0.666713899,48.4055362 -0.665932917,41.5858758 1.99994698,37.5495112 C4.96181881,33.0638375 8.24975036,25.1308587 9.3294571,19.8644569 C10.3006074,15.1269984 15.1251198,10.3044406 19.8645052,9.3351666 C25.1318341,8.25737138 33.0681667,4.97206728 37.5560761,2.01193647 C39.5225872,0.714366266 42.1669901,0 45.0027335,0 C47.8400388,0 50.4856132,0.715146994 52.4532957,2.01349792 C56.9408146,4.97479983 64.8763663,8.26205574 70.1429141,9.3406317 C74.8826901,10.3110768 79.706031,15.134025 80.6760098,19.8714835 C81.7537641,25.1374949 85.0405242,33.0712545 88.002396,37.5580992 C90.6663235,41.5944638 90.665933,48.4141242 88.0008341,52.4500985 C85.0385717,56.9361625 81.7502497,64.869922 80.6713239,70.1355431 C79.7001736,74.8726112 74.8756612,79.6947787 70.1362758,80.664443 C64.8685565,81.7422383 56.9318333,85.0279327 52.4447049,87.9880635 C50.4778033,89.2856337 47.8330099,90 44.9972666,90 C42.1603518,90 39.5139964,89.284853 37.5474853,87.9868924 Z" id="path-2"></path>
        <linearGradient x1="50%" y1="130.651573%" x2="36.035554%" y2="0%" id="linearGradient-4">
            <stop stop-color="#009EFD" offset="0%"></stop>
            <stop stop-color="#2AF598" offset="100%"></stop>
        </linearGradient>
    </defs>
    <g id="icon-trees_2" stroke="none" stroke-width="1" fill="none" fill-rule="evenodd">
        <g id="bg">
            <mask id="mask-3" fill="white">
                <use xlink:href="#path-2"></use>
            </mask>
            <use id="Mask" fill="url(#linearGradient-1)" xlink:href="#path-2"></use>
            <circle id="Oval-6" fill="url(#linearGradient-4)" opacity="0.44287817" mask="url(#mask-3)" cx="97.0869635" cy="82.4823754" r="40.6481879"></circle>
            <circle id="Oval-6-Copy-3" fill="url(#linearGradient-1)" opacity="0.847373188" mask="url(#mask-3)" cx="68.1509174" cy="27.7555055" r="40.6481879"></circle>
        </g>
        <g id="trees" transform="translate(18.000000, 19.000000)" fill="#FFFFFF">
            <path d="M34.9996674,44 C34.4476222,44 34,44.3872545 34,44.8648493 L34,51.1351507 C34,51.6127455 34.4476222,52 34.9996674,52 C35.5523778,52 36,51.6127455 36,51.1351507 L36,44.8648493 C36,44.3872545 35.5523778,44 34.9996674,44" id="body"></path>
            <path d="M18,44 C17.4471058,44 17,44.3872545 17,44.8648493 L17,51.1351507 C17,51.6127455 17.4471058,52 18,52 C18.5528942,52 19,51.6127455 19,51.1351507 L19,44.8648493 C19,44.3872545 18.5528942,44 18,44" id="body"></path>
            <path d="M44.5814905,39.7132467 L44.5814905,34.40698 C44.5814905,33.9366467 44.1989432,33.55528 43.7271537,33.55528 C43.2547958,33.55528 42.8722484,33.9366467 42.8722484,34.40698 L42.8722484,39.7132467 L40.5019326,39.7132467 L38.2202905,32.89568 L43.7271537,16.4419467 L51.5156589,39.7132467 L44.5814905,39.7132467 Z M27.6334484,35.04278 L32.0267747,30.34568 C32.3485011,30.0011467 32.3297432,29.4622467 31.9847116,29.1415133 C31.6391116,28.8202133 31.0985432,28.83948 30.7768168,29.1834467 L27.6334484,32.5443467 L27.6334484,25.88148 C27.6334484,25.4111467 27.2503326,25.02978 26.7785432,25.02978 C26.3061853,25.02978 25.9236379,25.4111467 25.9236379,25.88148 L25.9236379,32.48938 L22.7751537,29.1783467 C22.4500168,28.8372133 21.90888,28.82248 21.5666905,29.1466133 C21.2239326,29.47018 21.2097221,30.00908 21.5342905,30.35078 L25.9236379,34.96628 L25.9236379,39.7132467 L14.85648,39.7132467 L26.7785432,4.09371333 L38.7000379,39.7132467 L27.6334484,39.7132467 L27.6334484,35.04278 Z M9.82936421,33.55528 C9.35757474,33.55528 8.97502737,33.9366467 8.97502737,34.40698 L8.97502737,39.7132467 L2.04085895,39.7132467 L9.82936421,16.4419467 L15.3367958,32.89568 L13.0551537,39.7132467 L10.6842695,39.7132467 L10.6842695,34.40698 C10.6842695,33.9366467 10.3017221,33.55528 9.82936421,33.55528 Z M18.3039537,12.0899467 L20.3019537,18.0603467 L16.2377432,30.2040133 L14.2391747,24.23418 L18.3039537,12.0899467 Z M35.2525642,12.0899467 L39.3167747,24.23418 L37.3193432,30.2040133 L33.2545642,18.05978 L35.2525642,12.0899467 Z M53.5125221,40.29578 L44.5377221,13.4805467 C44.4217642,13.1326133 44.0949221,12.8980133 43.7271537,12.8980133 C43.3593853,12.8980133 43.0325432,13.1326133 42.9160168,13.4805467 L40.2182905,21.5425133 L36.0637011,9.12798 C35.9471747,8.78061333 35.6203326,8.54601333 35.2525642,8.54601333 C34.8847958,8.54601333 34.5585221,8.78061333 34.4419958,9.12798 L32.3536168,15.3681133 L27.5885432,1.13231333 C27.4725853,0.78438 27.1463116,0.54978 26.7785432,0.54978 C26.4107747,0.54978 26.0839326,0.78438 25.9674063,1.13231333 L21.2029011,15.3681133 L19.1145221,9.12854667 C18.9985642,8.78061333 18.6717221,8.54601333 18.3039537,8.54601333 C17.9361853,8.54601333 17.6093432,8.78061333 17.4933853,9.12854667 L13.3387958,21.5425133 L10.6405011,13.4805467 C10.5239747,13.1326133 10.1971326,12.8980133 9.82936421,12.8980133 C9.46159579,12.8980133 9.13532211,13.1326133 9.01879579,13.4805467 L0.0439957895,40.29578 C-0.0429726316,40.5553133 0.000795789474,40.8409133 0.161658947,41.0630467 C0.321953684,41.2857467 0.580016842,41.4172133 0.854564211,41.4172133 L8.97502737,41.4172133 L8.97502737,50.1484133 C8.97502737,50.6187467 9.35757474,50.9995467 9.82936421,50.9995467 C10.3017221,50.9995467 10.6842695,50.6187467 10.6842695,50.1484133 L10.6842695,41.4172133 L25.9236379,41.4172133 L25.9236379,50.1484133 C25.9236379,50.6187467 26.3061853,50.9995467 26.7785432,50.9995467 C27.2503326,50.9995467 27.6334484,50.6187467 27.6334484,50.1484133 L27.6334484,41.4172133 L42.8722484,41.4172133 L42.8722484,50.1484133 C42.8722484,50.6187467 43.2547958,50.9995467 43.7271537,50.9995467 C44.1989432,50.9995467 44.5814905,50.6187467 44.5814905,50.1484133 L44.5814905,41.4172133 L52.7019537,41.4172133 C52.9770695,41.4172133 53.2351326,41.2857467 53.3954274,41.0630467 C53.5557221,40.8409133 53.5994905,40.5553133 53.5125221,40.29578 Z" id="tree"></path>
        </g>
    </g>
</svg>