<?xml version="1.0" encoding="UTF-8"?>
<svg width="90px" height="90px" viewBox="0 0 90 90" version="1.1" xmlns="http://www.w3.org/2000/svg" xmlns:xlink="http://www.w3.org/1999/xlink">
    <!-- Generator: Sketch 49 (51002) - http://www.bohemiancoding.com/sketch -->
    <title>icon-trees_1</title>
    <desc>Created with Sketch.</desc>
    <defs>
        <linearGradient x1="50%" y1="0%" x2="50%" y2="100%" id="linearGradient-1">
            <stop stop-color="#40BCF9" offset="0%"></stop>
            <stop stop-color="#1E87F0" offset="100%"></stop>
        </linearGradient>
        <path d="M37.5474853,87.9868924 C33.0603569,85.0248098 25.1244147,81.7379443 19.8570859,80.6593683 C15.1177005,79.6889232 10.2943596,74.865975 9.32438072,70.1285165 C8.24623595,64.8625051 4.95986636,56.9287455 1.99799452,52.4419008 C-0.666713899,48.4055362 -0.665932917,41.5858758 1.99994698,37.5495112 C4.96181881,33.0638375 8.24975036,25.1308587 9.3294571,19.8644569 C10.3006074,15.1269984 15.1251198,10.3044406 19.8645052,9.3351666 C25.1318341,8.25737138 33.0681667,4.97206728 37.5560761,2.01193647 C39.5225872,0.714366266 42.1669901,0 45.0027335,0 C47.8400388,0 50.4856132,0.715146994 52.4532957,2.01349792 C56.9408146,4.97479983 64.8763663,8.26205574 70.1429141,9.3406317 C74.8826901,10.3110768 79.706031,15.134025 80.6760098,19.8714835 C81.7537641,25.1374949 85.0405242,33.0712545 88.002396,37.5580992 C90.6663235,41.5944638 90.665933,48.4141242 88.0008341,52.4500985 C85.0385717,56.9361625 81.7502497,64.869922 80.6713239,70.1355431 C79.7001736,74.8726112 74.8756612,79.6947787 70.1362758,80.664443 C64.8685565,81.7422383 56.9318333,85.0279327 52.4447049,87.9880635 C50.4778033,89.2856337 47.8330099,90 44.9972666,90 C42.1603518,90 39.5139964,89.284853 37.5474853,87.9868924 Z" id="path-2"></path>
        <linearGradient x1="28.8690869%" y1="4.68461065%" x2="71.1309131%" y2="95.3153894%" id="linearGradient-4">
            <stop stop-color="#40BCF9" offset="0%"></stop>
            <stop stop-color="#1E87F0" stop-opacity="0" offset="100%"></stop>
        </linearGradient>
        <circle id="path-5" cx="97.0869635" cy="82.4823754" r="40.6481879"></circle>
        <filter x="-60.3%" y="-50.4%" width="220.5%" height="220.5%" filterUnits="objectBoundingBox" id="filter-6">
            <feOffset dx="0" dy="8" in="SourceAlpha" result="shadowOffsetOuter1"></feOffset>
            <feGaussianBlur stdDeviation="15" in="shadowOffsetOuter1" result="shadowBlurOuter1"></feGaussianBlur>
            <feColorMatrix values="0 0 0 0 0.117647059   0 0 0 0 0.529411765   0 0 0 0 0.941176471  0 0 0 0.2 0" type="matrix" in="shadowBlurOuter1"></feColorMatrix>
        </filter>
        <linearGradient x1="28.8690869%" y1="4.68461065%" x2="71.1309131%" y2="95.3153894%" id="linearGradient-7">
            <stop stop-color="#2AA6E2" offset="0%"></stop>
            <stop stop-color="#1E87F0" stop-opacity="0" offset="100%"></stop>
        </linearGradient>
    </defs>
    <g id="icon-trees_1" stroke="none" stroke-width="1" fill="none" fill-rule="evenodd">
        <g id="bg">
            <mask id="mask-3" fill="white">
                <use xlink:href="#path-2"></use>
            </mask>
            <use id="Mask" fill="url(#linearGradient-1)" xlink:href="#path-2"></use>
            <g id="Oval-6" opacity="0.657608696" mask="url(#mask-3)">
                <use fill="black" fill-opacity="1" filter="url(#filter-6)" xlink:href="#path-5"></use>
                <use fill="url(#linearGradient-4)" fill-rule="evenodd" xlink:href="#path-5"></use>
            </g>
            <circle id="Oval-6-Copy-3" fill="url(#linearGradient-7)" mask="url(#mask-3)" cx="68.1509174" cy="27.7555055" r="40.6481879"></circle>
        </g>
        <path d="M45.8645711,54.5525272 L50.4413698,49.7111075 C50.776447,49.3564568 50.7564755,48.8003995 50.3975435,48.4698301 C50.037502,48.1387133 49.4744171,48.1584161 49.1387852,48.5130668 L45.8645711,51.9769313 L45.8645711,45.1099527 C45.8645711,44.6250445 45.466251,44.2320828 44.9747305,44.2320828 C44.4826553,44.2320828 44.0843351,44.6250445 44.0843351,45.1099527 L44.0843351,51.9205593 L40.8045735,48.5081411 C40.4667225,48.1556796 39.9030828,48.1414498 39.5463699,48.4747558 C39.189657,48.808609 39.1741236,49.3646663 39.5125293,49.7165805 L44.0843351,54.4737159 L44.0843351,59.3665818 L32.5574596,59.3665818 L44.9747305,22.6525737 L57.3914467,59.3665818 L45.8645711,59.3665818 L45.8645711,54.5525272 Z M56.1693027,49.5649782 L50.7814398,34.2734039 L45.8190805,19.6002791 C45.6975873,19.2417973 45.3575173,18.9998905 44.9747305,18.9998905 C44.591389,18.9998905 44.251319,19.2417973 44.1303805,19.6002791 L39.1674665,34.2734039 L30,61.1513286 L44.0843351,61.1228689 L44.0843351,70.1215828 C44.0843351,70.6070383 44.4826553,71 44.9747305,71 C45.466251,71 45.8645711,70.6070383 45.8645711,70.1215828 L45.8645711,61.1228689 L59.9993898,61.1228689 L56.1693027,49.5649782 Z" id="tree" fill="#FFFFFF"></path>
    </g>
</svg>