<?xml version="1.0" encoding="UTF-8"?>
<svg width="60px" height="60px" viewBox="0 0 60 60" version="1.1" xmlns="http://www.w3.org/2000/svg" xmlns:xlink="http://www.w3.org/1999/xlink">
    <!-- Generator: Sketch 49 (51002) - http://www.bohemiancoding.com/sketch -->
    <title>ico</title>
    <desc>Created with Sketch.</desc>
    <defs>
        <linearGradient x1="100%" y1="0%" x2="-38.3418912%" y2="100%" id="linearGradient-1">
            <stop stop-color="#3DDAD7" offset="0%"></stop>
            <stop stop-color="#89E200" offset="100%"></stop>
        </linearGradient>
    </defs>
    <g id="Page-1" stroke="none" stroke-width="1" fill="none" fill-rule="evenodd">
        <g id="05" transform="translate(-770.000000, -3159.000000)" fill="url(#linearGradient-1)" fill-rule="nonzero" stroke="url(#linearGradient-1)">
            <g id="4-screen" transform="translate(0.000000, 2740.000000)">
                <g id="top" transform="translate(330.000000, 80.000000)">
                    <g id="2" transform="translate(320.000000, 310.000000)">
                        <g id="ico" transform="translate(120.000000, 29.000000)">
                            <path d="M48.25,58.25 L48.25,53.75 C48.25,53.4738576 48.4738576,53.25 48.75,53.25 L53.75,53.25 C54.0261424,53.25 54.25,53.4738576 54.25,53.75 L54.25,58.25 L58.25,58.25 L58.25,24.25 L56.25,24.25 L43.75,24.25 L41.75,24.25 L41.75,58.25 L48.25,58.25 Z M8.25,58.25 L8.25,53.75 C8.25,53.4738576 8.47385763,53.25 8.75,53.25 L13.75,53.25 C14.0261424,53.25 14.25,53.4738576 14.25,53.75 L14.25,58.25 L23.25,58.25 L23.25,19.25 L21.25,19.25 L3.75,19.25 L1.75,19.25 L1.75,58.25 L8.25,58.25 Z M41.25,59.25 L23.75,59.25 L1.25,59.25 C0.973857625,59.25 0.75,59.0261424 0.75,58.75 L0.75,18.75 C0.75,18.4738576 0.973857625,18.25 1.25,18.25 L3.25,18.25 L3.25,8.75 C3.25,8.47385763 3.47385763,8.25 3.75,8.25 L10.75,8.25 L10.75,1.25 C10.75,0.973857625 10.9738576,0.75 11.25,0.75 C11.5261424,0.75 11.75,0.973857625 11.75,1.25 L11.75,8.25 L21.25,8.25 C21.5261424,8.25 21.75,8.47385763 21.75,8.75 L21.75,18.25 L23.75,18.25 C24.0261424,18.25 24.25,18.4738576 24.25,18.75 L24.25,33.25 L40.75,33.25 L40.75,23.75 C40.75,23.4738576 40.9738576,23.25 41.25,23.25 L43.25,23.25 L43.25,16.25 C43.25,15.9738576 43.4738576,15.75 43.75,15.75 L56.25,15.75 C56.5261424,15.75 56.75,15.9738576 56.75,16.25 L56.75,23.25 L58.75,23.25 C59.0261424,23.25 59.25,23.4738576 59.25,23.75 L59.25,58.75 C59.25,59.0261424 59.0261424,59.25 58.75,59.25 L41.25,59.25 Z M40.75,58.25 L40.75,34.25 L24.25,34.25 L24.25,58.25 L40.75,58.25 Z M20.75,18.25 L20.75,9.25 L4.25,9.25 L4.25,18.25 L20.75,18.25 Z M55.75,23.25 L55.75,16.75 L44.25,16.75 L44.25,23.25 L55.75,23.25 Z M8.75,14.25 C8.47385763,14.25 8.25,14.0261424 8.25,13.75 C8.25,13.4738576 8.47385763,13.25 8.75,13.25 L16.25,13.25 C16.5261424,13.25 16.75,13.4738576 16.75,13.75 C16.75,14.0261424 16.5261424,14.25 16.25,14.25 L8.75,14.25 Z M6.25,24.25 C5.97385763,24.25 5.75,24.0261424 5.75,23.75 C5.75,23.4738576 5.97385763,23.25 6.25,23.25 L18.75,23.25 C19.0261424,23.25 19.25,23.4738576 19.25,23.75 C19.25,24.0261424 19.0261424,24.25 18.75,24.25 L6.25,24.25 Z M6.25,29.25 C5.97385763,29.25 5.75,29.0261424 5.75,28.75 C5.75,28.4738576 5.97385763,28.25 6.25,28.25 L18.75,28.25 C19.0261424,28.25 19.25,28.4738576 19.25,28.75 C19.25,29.0261424 19.0261424,29.25 18.75,29.25 L6.25,29.25 Z M6.25,34.25 C5.97385763,34.25 5.75,34.0261424 5.75,33.75 C5.75,33.4738576 5.97385763,33.25 6.25,33.25 L18.75,33.25 C19.0261424,33.25 19.25,33.4738576 19.25,33.75 C19.25,34.0261424 19.0261424,34.25 18.75,34.25 L6.25,34.25 Z M6.25,39.25 C5.97385763,39.25 5.75,39.0261424 5.75,38.75 C5.75,38.4738576 5.97385763,38.25 6.25,38.25 L18.75,38.25 C19.0261424,38.25 19.25,38.4738576 19.25,38.75 C19.25,39.0261424 19.0261424,39.25 18.75,39.25 L6.25,39.25 Z M6.25,44.25 C5.97385763,44.25 5.75,44.0261424 5.75,43.75 C5.75,43.4738576 5.97385763,43.25 6.25,43.25 L18.75,43.25 C19.0261424,43.25 19.25,43.4738576 19.25,43.75 C19.25,44.0261424 19.0261424,44.25 18.75,44.25 L6.25,44.25 Z M6.25,49.25 C5.97385763,49.25 5.75,49.0261424 5.75,48.75 C5.75,48.4738576 5.97385763,48.25 6.25,48.25 L18.75,48.25 C19.0261424,48.25 19.25,48.4738576 19.25,48.75 C19.25,49.0261424 19.0261424,49.25 18.75,49.25 L6.25,49.25 Z M46.25,29.25 C45.9738576,29.25 45.75,29.0261424 45.75,28.75 C45.75,28.4738576 45.9738576,28.25 46.25,28.25 L53.75,28.25 C54.0261424,28.25 54.25,28.4738576 54.25,28.75 C54.25,29.0261424 54.0261424,29.25 53.75,29.25 L46.25,29.25 Z M46.25,34.25 C45.9738576,34.25 45.75,34.0261424 45.75,33.75 C45.75,33.4738576 45.9738576,33.25 46.25,33.25 L53.75,33.25 C54.0261424,33.25 54.25,33.4738576 54.25,33.75 C54.25,34.0261424 54.0261424,34.25 53.75,34.25 L46.25,34.25 Z M46.25,39.25 C45.9738576,39.25 45.75,39.0261424 45.75,38.75 C45.75,38.4738576 45.9738576,38.25 46.25,38.25 L53.75,38.25 C54.0261424,38.25 54.25,38.4738576 54.25,38.75 C54.25,39.0261424 54.0261424,39.25 53.75,39.25 L46.25,39.25 Z M46.25,44.25 C45.9738576,44.25 45.75,44.0261424 45.75,43.75 C45.75,43.4738576 45.9738576,43.25 46.25,43.25 L53.75,43.25 C54.0261424,43.25 54.25,43.4738576 54.25,43.75 C54.25,44.0261424 54.0261424,44.25 53.75,44.25 L46.25,44.25 Z M46.25,49.25 C45.9738576,49.25 45.75,49.0261424 45.75,48.75 C45.75,48.4738576 45.9738576,48.25 46.25,48.25 L53.75,48.25 C54.0261424,48.25 54.25,48.4738576 54.25,48.75 C54.25,49.0261424 54.0261424,49.25 53.75,49.25 L46.25,49.25 Z M28.75,39.25 C28.4738576,39.25 28.25,39.0261424 28.25,38.75 C28.25,38.4738576 28.4738576,38.25 28.75,38.25 L36.25,38.25 C36.5261424,38.25 36.75,38.4738576 36.75,38.75 C36.75,39.0261424 36.5261424,39.25 36.25,39.25 L28.75,39.25 Z M28.75,44.25 C28.4738576,44.25 28.25,44.0261424 28.25,43.75 C28.25,43.4738576 28.4738576,43.25 28.75,43.25 L36.25,43.25 C36.5261424,43.25 36.75,43.4738576 36.75,43.75 C36.75,44.0261424 36.5261424,44.25 36.25,44.25 L28.75,44.25 Z M28.75,49.25 C28.4738576,49.25 28.25,49.0261424 28.25,48.75 C28.25,48.4738576 28.4738576,48.25 28.75,48.25 L36.25,48.25 C36.5261424,48.25 36.75,48.4738576 36.75,48.75 C36.75,49.0261424 36.5261424,49.25 36.25,49.25 L28.75,49.25 Z M13.25,54.25 L9.25,54.25 L9.25,58.25 L13.25,58.25 L13.25,54.25 Z M53.25,58.25 L53.25,54.25 L49.25,54.25 L49.25,58.25 L53.25,58.25 Z" id="Combined-Shape"></path>
                        </g>
                    </g>
                </g>
            </g>
        </g>
    </g>
</svg>