<?xml version="1.0" encoding="UTF-8"?>
<svg width="60px" height="60px" viewBox="0 0 60 60" version="1.1" xmlns="http://www.w3.org/2000/svg" xmlns:xlink="http://www.w3.org/1999/xlink">
    <!-- Generator: Sketch 49 (51002) - http://www.bohemiancoding.com/sketch -->
    <title>ico</title>
    <desc>Created with Sketch.</desc>
    <defs>
        <linearGradient x1="100%" y1="0%" x2="-38.3418912%" y2="100%" id="linearGradient-1">
            <stop stop-color="#3DDAD7" offset="0%"></stop>
            <stop stop-color="#89E200" offset="100%"></stop>
        </linearGradient>
    </defs>
    <g id="Page-1" stroke="none" stroke-width="1" fill="none" fill-rule="evenodd">
        <g id="05" transform="translate(-450.000000, -3160.000000)" fill="url(#linearGradient-1)" fill-rule="nonzero" stroke="url(#linearGradient-1)">
            <g id="4-screen" transform="translate(0.000000, 2740.000000)">
                <g id="top" transform="translate(330.000000, 80.000000)">
                    <g id="1" transform="translate(0.000000, 310.000000)">
                        <g id="ico" transform="translate(120.000000, 30.000000)">
                            <path d="M32,36.25 L30.5,36.25 L30.5,29.18 L32,29.18 L32,36.25 Z M18,29.21875 L19.5,29.21875 L19.5,36.25125 C19.5,36.5682728 19.3006695,36.8510555 19.0020915,36.9576138 L6.47721479,41.4275698 C3.79262287,42.3861919 2,44.9313691 2,47.78625 L2,53.00125 L31.25,53.00125 L31.25,54.50125 L1.25,54.50125 C0.835786438,54.50125 0.5,54.1654636 0.5,53.75125 L0.5,47.78625 C0.5,44.2975949 2.6909996,41.1868 5.97290848,40.0148862 L18,35.7225828 L18,29.21875 Z M13.2685498,14.955825 C13.2369157,15.38196 13.22075,15.8136221 13.22075,16.25 C13.22075,24.1456257 18.51594,30.5 24.97075,30.5 C31.4271696,30.5 36.72075,24.1466796 36.72075,16.25 C36.72075,16.0665646 36.7178951,15.8839633 36.7122371,15.7022565 C36.555117,15.7071787 36.4617884,15.7166055 36.3633441,15.7357147 C32.2071627,16.5362006 29.2749144,15.2310613 26.8567316,11.5661046 C24.9105027,13.9663935 20.941843,15.74925 17.4715,15.74925 C15.9483255,15.74925 14.5874486,15.4953719 13.2685498,14.955825 Z M13.4555429,13.4018737 C14.7142701,13.9815383 15.9930626,14.24925 17.4715,14.24925 C20.907984,14.24925 24.9848968,12.1971374 26.2189514,9.83003635 C26.4931576,9.30406787 27.240546,9.28950323 27.5350357,9.80438932 C29.7694381,13.7110203 32.2243437,15.0053234 36.0785796,14.2629934 C36.2545717,14.2288303 36.4057319,14.2126213 36.6006913,14.2048224 C35.7805583,7.28337842 30.8598994,2 24.97075,2 C19.313015,2 14.5471254,6.8795566 13.4555429,13.4018737 Z M38.22075,16.25 C38.22075,24.9207382 32.3223159,32 24.97075,32 C17.6208478,32 11.72075,24.9197197 11.72075,16.25 C11.72075,7.57862897 17.6201508,0.5 24.97075,0.5 C32.3230128,0.5 38.22075,7.57761057 38.22075,16.25 Z M59.5,42.49 C59.5,47.0983945 57.2989807,51.2588101 53.6554479,54.9039622 C52.3922998,56.1676718 51.0411517,57.278976 49.6894933,58.2303433 C49.2156487,58.5638597 48.7749084,58.8539648 48.3781937,59.0995753 C48.1371569,59.2488038 47.9621926,59.3511955 47.8642322,59.405618 C47.6377153,59.5314607 47.3622847,59.5314607 47.1357678,59.405618 C47.0384088,59.3515296 46.8640416,59.2498025 46.6235964,59.1018714 C46.2275434,58.8582045 45.7874515,58.5712797 45.3142368,58.2424831 C43.9639777,57.3043031 42.6140846,56.2159893 41.3518843,54.9874476 C37.7048502,51.4376678 35.5,47.4493387 35.5,43.1 C35.5,34.8363083 44.0408683,33.983255 47.5019915,40.5854349 C50.9388733,34.086787 59.5,34.6574328 59.5,42.49 Z M47.4993026,57.8792035 C47.5277405,57.8617903 47.5575177,57.8434592 47.5886032,57.8242138 C47.9609314,57.5937013 48.3771248,57.3197535 48.8261317,57.0037192 C50.111192,56.0992271 51.3967627,55.0418595 52.5945521,53.8435378 C55.9822693,50.4543149 58,46.6403555 58,42.49 C58,35.9586624 50.4697603,35.9624275 48.2115125,42.7371708 C47.9835884,43.4209431 47.0164116,43.4209431 46.7884875,42.7371708 C44.4910134,35.8447486 37,36.069479 37,43.1 C37,46.9756613 39.0138998,50.6185822 42.3981157,53.9125524 C43.5968529,55.0793232 44.8836786,56.1167907 46.1701382,57.0106419 C46.6197751,57.3230563 47.0366168,57.5948228 47.4096067,57.8243004 C47.4408284,57.8435092 47.4707374,57.8618117 47.4993026,57.8792035 Z" id="Combined-Shape"></path>
                        </g>
                    </g>
                </g>
            </g>
        </g>
    </g>
</svg>