<?xml version="1.0" encoding="UTF-8"?>
<svg width="73px" height="70px" viewBox="0 0 73 70" version="1.1" xmlns="http://www.w3.org/2000/svg" xmlns:xlink="http://www.w3.org/1999/xlink">
    <!-- Generator: Sketch 49 (51002) - http://www.bohemiancoding.com/sketch -->
    <title>ico</title>
    <desc>Created with Sketch.</desc>
    <defs>
        <linearGradient x1="100%" y1="0%" x2="-38.3418912%" y2="100%" id="linearGradient-1">
            <stop stop-color="#3DDAD7" offset="0%"></stop>
            <stop stop-color="#89E200" offset="100%"></stop>
        </linearGradient>
    </defs>
    <g id="Page-1" stroke="none" stroke-width="1" fill="none" fill-rule="evenodd">
        <g id="05" transform="translate(-234.000000, -1745.000000)">
            <g id="2-screen" transform="translate(0.000000, 1000.000000)">
                <g id="liver-data" transform="translate(231.000000, 719.000000)">
                    <g id="tree">
                        <g id="ico" transform="translate(0.000000, 21.000000)">
                            <rect id="Rectangle-18" x="0" y="0" width="80" height="80"></rect>
                            <path d="M63.6973131,58.7689031 L63.6973131,51.4837427 C63.6973131,50.8380055 63.1764771,50.3144137 62.5341385,50.3144137 C61.891026,50.3144137 61.3701901,50.8380055 61.3701901,51.4837427 L61.3701901,58.7689031 L58.1430191,58.7689031 L55.0365768,49.4088256 L62.5341385,26.8189155 L73.1381425,58.7689031 L63.6973131,58.7689031 Z M40.6226537,52.3566549 L46.6041416,45.9078408 C47.0421701,45.4348189 47.0166313,44.6949441 46.5468729,44.254598 C46.0763405,43.8134739 45.3403598,43.8399258 44.9023313,44.3121697 L40.6226537,48.9264677 L40.6226537,39.7787834 C40.6226537,39.1330462 40.1010438,38.6094544 39.4587052,38.6094544 C38.8155928,38.6094544 38.2947568,39.1330462 38.2947568,39.7787834 L38.2947568,48.8510021 L34.0081141,44.3051678 C33.5654422,43.8368138 32.8286876,43.8165859 32.3627986,44.2615999 C31.8961358,44.705836 31.8767882,45.4457108 32.3186862,45.9148428 L38.2947568,52.2516253 L38.2947568,58.7689031 L23.2268866,58.7689031 L39.4587052,9.86559093 L55.68975,58.7689031 L40.6226537,58.7689031 L40.6226537,52.3566549 Z M16.3824981,50.3144137 C15.7401595,50.3144137 15.2193235,50.8380055 15.2193235,51.4837427 L15.2193235,58.7689031 L5.77849408,58.7689031 L16.3824981,26.8189155 L23.8808337,49.4088256 L20.7743914,58.7689031 L17.5464465,58.7689031 L17.5464465,51.4837427 C17.5464465,50.8380055 17.0256106,50.3144137 16.3824981,50.3144137 Z M27.9206017,20.8439014 L30.6408669,29.0408739 L25.1074682,45.7133417 L22.3864291,37.5171472 L27.9206017,20.8439014 Z M50.9960349,20.8439014 L56.5294336,37.5171472 L53.8099423,45.7133417 L48.2757697,29.0400959 L50.9960349,20.8439014 Z M75.8568599,59.5686836 L63.6377227,22.7531051 C63.4798467,22.2754152 63.0348531,21.9533246 62.5341385,21.9533246 C62.033424,21.9533246 61.5884304,22.2754152 61.4297805,22.7531051 L57.756842,33.8216632 L52.100393,16.777313 C51.9417431,16.3004011 51.4967495,15.9783104 50.9960349,15.9783104 C50.4953204,15.9783104 50.0511007,16.3004011 49.8924508,16.777313 L47.0491352,25.3446119 L40.5615155,5.79978054 C40.4036395,5.3220906 39.9594198,5 39.4587052,5 C38.9579907,5 38.5129971,5.3220906 38.3543472,5.79978054 L31.8675014,25.3446119 L29.0241858,16.778091 C28.8663098,16.3004011 28.4213162,15.9783104 27.9206017,15.9783104 C27.4198871,15.9783104 26.9748935,16.3004011 26.8170175,16.778091 L21.1605685,33.8216632 L17.4868561,22.7531051 C17.3282062,22.2754152 16.8832126,21.9533246 16.3824981,21.9533246 C15.8817835,21.9533246 15.4375638,22.2754152 15.2789139,22.7531051 L3.05977666,59.5686836 C2.94136967,59.9250061 3.00096012,60.3171164 3.21997436,60.6220911 C3.4382147,60.9278438 3.78956616,61.108339 4.16336079,61.108339 L15.2193235,61.108339 L15.2193235,73.0957111 C15.2193235,73.7414483 15.7401595,74.264262 16.3824981,74.264262 C17.0256106,74.264262 17.5464465,73.7414483 17.5464465,73.0957111 L17.5464465,61.108339 L38.2947568,61.108339 L38.2947568,73.0957111 C38.2947568,73.7414483 38.8155928,74.264262 39.4587052,74.264262 C40.1010438,74.264262 40.6226537,73.7414483 40.6226537,73.0957111 L40.6226537,61.108339 L61.3701901,61.108339 L61.3701901,73.0957111 C61.3701901,73.7414483 61.891026,74.264262 62.5341385,74.264262 C63.1764771,74.264262 63.6973131,73.7414483 63.6973131,73.0957111 L63.6973131,61.108339 L74.7532758,61.108339 C75.1278443,61.108339 75.4791958,60.9278438 75.6974361,60.6220911 C75.9156765,60.3171164 75.9752669,59.9250061 75.8568599,59.5686836 Z" id="Fill-5" fill="url(#linearGradient-1)"></path>
                        </g>
                    </g>
                </g>
            </g>
        </g>
    </g>
</svg>