<?xml version="1.0" encoding="UTF-8"?>
<svg width="80px" height="65px" viewBox="0 0 80 65" version="1.1" xmlns="http://www.w3.org/2000/svg" xmlns:xlink="http://www.w3.org/1999/xlink">
    <!-- Generator: Sketch 49 (51002) - http://www.bohemiancoding.com/sketch -->
    <title>ico</title>
    <desc>Created with Sketch.</desc>
    <defs>
        <linearGradient x1="100%" y1="0%" x2="-38.3418912%" y2="100%" id="linearGradient-1">
            <stop stop-color="#3DDAD7" offset="0%"></stop>
            <stop stop-color="#89E200" offset="100%"></stop>
        </linearGradient>
    </defs>
    <g id="Page-1" stroke="none" stroke-width="1" fill="none" fill-rule="evenodd">
        <g id="05" transform="translate(-690.000000, -1750.000000)">
            <g id="2-screen" transform="translate(0.000000, 1000.000000)">
                <g id="liver-data" transform="translate(231.000000, 719.000000)">
                    <g id="people" transform="translate(459.000000, 0.000000)">
                        <g id="ico" transform="translate(0.000000, 21.000000)">
                            <rect id="Rectangle-18" x="0" y="0" width="80" height="80"></rect>
                            <path d="M76.42375,53.1210938 C78.529375,53.7228125 80,55.6726563 80,57.8629688 L80,73.5573437 C80,74.2045312 79.4753125,74.7292187 78.828125,74.7292187 C78.1809375,74.7292187 77.65625,74.2045312 77.65625,73.5573437 L77.65625,57.8629688 C77.65625,56.7139063 76.8845312,55.6909375 75.7798437,55.3753125 L70.9398437,53.9925 C70.7651563,53.9426563 70.5992188,53.8748438 70.44125,53.7945313 L67.47,56.7657813 L67.47,73.5573437 C67.47,74.2045312 66.9453125,74.7292187 66.298125,74.7292187 C65.6509375,74.7292187 65.12625,74.2045312 65.12625,73.5573437 L65.12625,56.7657813 L62.1342188,53.77375 C61.7342187,53.9698438 61.3357813,54.0840625 61.04375,54.1675 L60.7542187,54.2501563 C61.8401563,55.3803125 62.4875,56.9084375 62.4875,58.5378125 L62.4875,73.5573437 C62.4875,74.2045312 61.9628125,74.7292187 61.315625,74.7292187 C60.6684375,74.7292187 60.14375,74.2045312 60.14375,73.5573437 L60.14375,58.5378125 C60.14375,56.9290625 59.1278125,55.47875 57.6159375,54.9289063 L50.0142187,52.1646875 L46.8495312,56.9115625 C46.445,57.5184375 45.7967187,57.9076563 45.0707812,57.9795313 C44.99,57.9875 44.909375,57.9914063 44.8292187,57.9914063 C44.18875,57.9914063 43.5754687,57.739375 43.1171875,57.2809375 L41.1865625,55.3503125 L41.1865625,73.5571875 C41.1865625,74.204375 40.661875,74.7290625 40.0146875,74.7290625 C39.3675,74.7290625 38.8428125,74.204375 38.8428125,73.5571875 L38.8428125,55.3503125 L36.9121875,57.2809375 C36.45375,57.7392188 35.8404687,57.99125 35.2001562,57.99125 C35.1198438,57.99125 35.039375,57.9873438 34.9584375,57.979375 C34.2326562,57.9075 33.584375,57.5182813 33.1798438,56.9114063 L30.0153125,52.164375 L22.4134375,54.9285938 C20.9014063,55.4784375 19.885625,56.92875 19.885625,58.5375 L19.885625,73.5570312 C19.885625,74.2042187 19.3609375,74.7289062 18.71375,74.7289062 C18.0665625,74.7289062 17.541875,74.2042187 17.541875,73.5570312 L17.541875,58.5375 C17.541875,57.3557813 17.883125,56.2276563 18.484375,55.265625 L17.2075,54.6271875 L15.8454688,55.9215625 C14.8932813,56.8264063 13.6707813,57.2790625 12.44875,57.2790625 C11.2264063,57.2790625 10.0045313,56.8267188 9.05203125,55.9215625 L7.68984375,54.6270313 L3.77375,56.585 C2.89171875,57.0260938 2.34375,57.9128125 2.34375,58.8990625 L2.34375,73.5567188 C2.34375,74.2039063 1.8190625,74.7285938 1.171875,74.7285938 C0.5246875,74.7285938 0,74.2039063 0,73.5567188 L0,58.8990625 C0,57.0195313 1.044375,55.3296875 2.725625,54.4884375 L5.87046875,52.9160938 C2.4934375,51.4473438 1.42796875,49.3882813 1.37671875,49.2857813 C1.21171875,48.9559375 1.21171875,48.5675 1.37671875,48.2376563 C2.22140625,46.5479688 2.32390625,43.45125 2.40609375,40.9629688 C2.4334375,40.134375 2.459375,39.3517188 2.50890625,38.6546875 C2.90828125,33.0335937 7.1815625,28.7948437 12.44875,28.7948437 C17.7159375,28.7948437 21.9890625,33.03375 22.3885938,38.6546875 C22.438125,39.3515625 22.4640625,40.1342188 22.4914063,40.9626562 C22.5735938,43.4510937 22.6759375,46.548125 23.5207813,48.2378125 C23.6857813,48.5676563 23.6857813,48.9560937 23.5207813,49.2859375 C23.4695313,49.3884375 22.401875,51.4517187 19.0315625,52.91875 L20.16375,53.4848438 C20.6045313,53.173125 21.09,52.9157813 21.6125,52.7257813 L28.8226563,50.1040625 C28.798125,49.7817187 28.906875,49.4539062 29.1420313,49.206875 L31.325,46.9134375 L31.325,42.9728125 C28.2607813,40.3709375 26.3129688,36.424375 26.3129688,32.04375 L26.3129688,29.3982813 C25.4814063,27.58875 25.06,25.6739063 25.06,23.701875 L25.06,21.1957813 C25.06,15.0225 30.0823438,10 36.2557812,10 L53.7978125,10 C54.445,10 54.9696875,10.5246875 54.9696875,11.171875 L54.9696875,23.7015625 C54.9696875,25.6735937 54.5482813,27.5884375 53.7167188,29.3979688 L53.7167188,32.4726562 C53.7167188,36.245625 52.1373438,39.89 49.3834375,42.47125 C49.1629688,42.6778125 48.9354687,42.873125 48.7046875,43.0632812 L48.7046875,46.9132812 L50.8876563,49.2067187 C51.1228125,49.45375 51.2315625,49.7815625 51.2070312,50.1039062 L58.0384375,52.5879688 L60.4,51.9132812 C61.3676562,51.6367188 61.3676562,51.5285938 61.3676562,51.2675 L61.3673437,49.574375 C59.103125,47.9365625 57.6082812,45.2148438 57.6082812,42.1814063 L57.6082812,40.2673438 L57.008125,39.0670312 C56.5810937,38.2129688 56.3553125,37.2565625 56.3553125,36.2317187 C56.3553125,32.1310937 59.6915625,28.7948437 63.7921875,28.7948437 L75.0692188,28.7948437 C75.7164062,28.7948437 76.2410938,29.3195313 76.2410938,29.9667187 L76.2410938,36.0057812 C76.2410938,37.1542187 75.9696875,38.304375 75.4560937,39.3317188 L74.988125,40.2675 L74.988125,42.4967187 C74.988125,44.8673438 74.0510937,47.0821875 72.3495312,48.7334375 C71.9984375,49.0742188 71.6228125,49.3795313 71.2290625,49.6523438 L71.2290625,51.2678125 C71.2290625,51.4851563 71.375,51.6785938 71.5839062,51.7382813 L76.42375,53.1210938 Z M7.51796875,51.05125 L7.51796875,49.6467187 C6.15359375,48.7029687 5.07125,47.3801562 4.425,45.830625 C4.28453125,46.8420312 4.07703125,47.8001562 3.75703125,48.6367187 C4.22640625,49.2109375 5.3259375,50.2625 7.51796875,51.05125 Z M14.23125,54.2228125 L15.3209375,53.1873437 C15.136875,52.8426562 15.0359375,52.451875 15.0359375,52.0425 L15.0360938,50.794375 C14.2171875,51.0484375 13.3485938,51.186875 12.4490625,51.186875 C11.5484375,51.186875 10.679375,51.0490625 9.861875,50.7935937 L9.861875,52.0426562 C9.861875,52.451875 9.76078125,52.8425 9.576875,53.1870312 L10.6667188,54.2226562 C11.6659375,55.1723437 13.2317188,55.1725 14.23125,54.2228125 Z M12.449375,48.843125 C15.59625,48.843125 18.2403125,46.5584375 18.7173437,43.4821875 C16.8215625,39.3076562 11.9470312,38.7407812 10.431875,38.6667187 L8.6725,40.49125 C8.22328125,40.9570312 7.48140625,40.970625 7.01546875,40.5214062 C6.54953125,40.0721875 6.53609375,39.3303125 6.9853125,38.864375 L9.0996875,36.6715625 C9.31265625,36.450625 9.60390625,36.3221875 9.91078125,36.3135937 C9.99609375,36.3114062 12.0176562,36.2646875 14.368125,37.0198437 C16.9123437,37.8373437 18.8814062,39.285 20.1564062,41.249375 C20.1540625,41.1796875 20.1517188,41.1095312 20.149375,41.0403125 C20.1228125,40.2346875 20.0975,39.47375 20.05125,38.8210937 C19.9015625,36.7154687 19.0601563,34.7751562 17.6820313,33.3573437 C16.2914063,31.9267187 14.433125,31.1389062 12.4490625,31.1389062 C10.465,31.1389062 8.6065625,31.9267187 7.21609375,33.3573437 C5.83796875,34.7751562 4.9965625,36.7154687 4.846875,38.8210937 C4.80046875,39.4739062 4.7753125,40.235 4.74921875,41.0407812 C4.74578125,41.140625 4.7425,41.2415625 4.7390625,41.3423437 C4.80171875,41.331875 4.86578125,41.3251562 4.93140625,41.3251562 C5.57859375,41.3251562 6.10328125,41.8498437 6.10328125,42.4970312 C6.10328125,45.99625 8.95,48.843125 12.449375,48.843125 Z M17.3795312,51.0551562 C19.569375,50.2667187 20.6740625,49.2057812 21.1407812,48.6370312 C20.8214062,47.8023437 20.6140625,46.8464062 20.4735937,45.8373437 C19.826875,47.3985937 18.7429687,48.7189062 17.3796875,49.6575 L17.3795312,51.0551562 Z M28.6567187,32.0435937 C28.6567187,38.2548437 33.3126562,43.4217187 39.2565625,43.8065625 C42.0325,43.9864062 44.690625,43.185625 46.8607812,41.5379687 C46.8675,41.533125 46.8740625,41.5279687 46.8809375,41.5232812 C47.19125,41.2865625 47.4914062,41.0325 47.780625,40.7615625 C50.0971875,38.5901562 51.3729687,35.6465625 51.3729687,32.4729687 L51.3729687,29.13625 C51.3729687,28.9598437 51.4128125,28.785625 51.4895312,28.6267187 C52.2435937,27.0651562 52.6259375,25.4082812 52.6259375,23.7020312 L52.6259375,12.3439062 L36.2557812,12.3439062 C31.3748437,12.3439062 27.40375,16.3148437 27.40375,21.1959375 L27.40375,23.701875 C27.40375,25.408125 27.7860937,27.065 28.5401562,28.6265625 C28.616875,28.7854687 28.6567187,28.9596875 28.6567187,29.1360937 L28.6567187,32.0435937 Z M35.255,55.6234375 L38.1873437,52.6909375 L32.6584375,48.9117188 L31.485625,50.1440625 L35.1301562,55.6109375 C35.1365625,55.620625 35.1515625,55.6429688 35.1896875,55.6467188 C35.2279687,55.6507813 35.246875,55.6315625 35.255,55.6234375 Z M40.0148438,51.1010937 L46.3609375,46.7632812 L46.3609375,44.6226562 C44.4242188,45.639375 42.2676563,46.175 40.026875,46.175 C39.7207813,46.175 39.41375,46.1651562 39.1048438,46.1451562 C37.149375,46.0185937 35.3107813,45.4634375 33.66875,44.5757812 L33.66875,46.7632812 L40.0148438,51.1010937 Z M44.8995313,55.61125 L48.5442188,50.144375 L47.37125,48.9120312 L41.8423438,52.6914062 L44.7746875,55.62375 C44.7829688,55.6317187 44.8017188,55.651875 44.84,55.6470312 C44.878125,55.6432812 44.893125,55.6209375 44.8995313,55.61125 Z M66.298125,54.6225 L68.97,51.9507812 C68.9146875,51.730625 68.8853125,51.5015625 68.8853125,51.2678125 L68.8853125,50.7959375 C68.0590625,51.0523437 67.1909375,51.1867188 66.3015625,51.1867188 C66.2115625,51.1867188 66.1220312,51.1854687 66.0317187,51.1826563 C65.226875,51.1585938 64.4490625,51.0148437 63.7110937,50.7726562 L63.71125,51.2671875 C63.7114062,51.5217187 63.6851562,51.7525 63.63875,51.9632812 L66.298125,54.6225 Z M70.7173437,47.0515625 C71.96,45.845625 72.644375,44.228125 72.644375,42.496875 L72.644375,39.9909375 C72.644375,39.8089062 72.6867187,39.6296875 72.768125,39.466875 L73.3596875,38.28375 C73.7114062,37.5801562 73.8973437,36.7925 73.8973437,36.0059375 L73.8973437,31.13875 L63.7921875,31.13875 C60.9839062,31.13875 58.6990625,33.4234375 58.6990625,36.231875 L58.6990625,36.3017187 C58.6990625,36.8948437 58.8392187,37.4885937 59.104375,38.0190625 L59.8282812,39.466875 C59.9096875,39.6295312 59.9520312,39.8089062 59.9520312,39.9909375 L59.9520312,42.1817187 C59.9520312,45.75125 62.7109375,48.7382812 66.1021875,48.84 C67.8345312,48.8934375 69.4753125,48.256875 70.7173437,47.0515625 Z M70.58125,36.4365625 C71.1601563,36.7260937 71.3948438,37.43 71.1053125,38.0089062 C70.9,38.419375 70.4860938,38.656875 70.05625,38.656875 C69.8801563,38.656875 69.7014063,38.6171875 69.533125,38.5329687 C67.6801563,37.6065625 63.85625,37.40375 62.5392188,37.4035937 C61.8920313,37.4035937 61.3673438,36.8789062 61.3673438,36.2317187 C61.3673438,35.5845312 61.8920313,35.0598437 62.5392188,35.0598437 C62.7551563,35.0598437 67.8590625,35.075625 70.58125,36.4365625 Z M73.8160937,58.866875 C74.4632812,58.866875 74.9879687,59.3917187 74.9879687,60.03875 L74.9879687,67.5567187 C74.9879687,68.2039062 74.4632812,68.7285937 73.8160937,68.7285937 C73.1689062,68.7285937 72.6442187,68.2039062 72.6442187,67.5567187 L72.6442187,60.03875 C72.6442187,59.3915625 73.1689062,58.866875 73.8160937,58.866875 Z M6.18390625,60.4159375 C6.83109375,60.4159375 7.35578125,60.9407812 7.35578125,61.5878125 L7.35578125,67.5567187 C7.35578125,68.2039062 6.83109375,68.7285937 6.18390625,68.7285937 C5.53671875,68.7285937 5.01203125,68.2039062 5.01203125,67.5567187 L5.01203125,61.5878125 C5.01203125,60.940625 5.53671875,60.4159375 6.18390625,60.4159375 Z M49.614375,24.1264062 C50.0720313,24.5839062 50.0720313,25.3259375 49.614375,25.7835937 C49.156875,26.24125 48.4148437,26.24125 47.9571875,25.7835937 C46.3914063,24.2176562 43.7445313,23.3003125 40.0901563,23.0570312 C36.9846875,22.85 33.9873438,23.20125 32.476875,23.4289062 C32.441875,23.4342187 32.415625,23.4682812 32.415625,23.508125 L32.415625,26.2079687 C32.415625,26.8551562 31.8909375,27.3798437 31.24375,27.3798437 C30.5965625,27.3798437 30.071875,26.8551562 30.071875,26.2079687 L30.071875,23.5082812 C30.071875,22.2990625 30.93625,21.2910937 32.1273438,21.1115625 C35.9089063,20.5415625 45.1821875,19.6942187 49.614375,24.1264062 Z M26.231875,61.3729687 C26.8790625,61.3729687 27.40375,61.8978125 27.40375,62.5448437 L27.40375,67.556875 C27.40375,68.2040625 26.8790625,68.72875 26.231875,68.72875 C25.5846875,68.72875 25.06,68.2040625 25.06,67.556875 L25.06,62.5448437 C25.06,61.8976562 25.5846875,61.3729687 26.231875,61.3729687 Z M53.7978125,61.3729687 C54.445,61.3729687 54.9696875,61.8978125 54.9696875,62.5448437 L54.9696875,67.556875 C54.9696875,68.2040625 54.445,68.72875 53.7978125,68.72875 C53.150625,68.72875 52.6259375,68.2040625 52.6259375,67.556875 L52.6259375,62.5448437 C52.6259375,61.8976562 53.150625,61.3729687 53.7978125,61.3729687 Z" id="Combined-Shape" fill="url(#linearGradient-1)" fill-rule="nonzero"></path>
                        </g>
                    </g>
                </g>
            </g>
        </g>
    </g>
</svg>