<?xml version="1.0" encoding="UTF-8"?>
<svg width="58px" height="57px" viewBox="0 0 58 57" version="1.1" xmlns="http://www.w3.org/2000/svg" xmlns:xlink="http://www.w3.org/1999/xlink">
    <!-- Generator: Sketch 49 (51002) - http://www.bohemiancoding.com/sketch -->
    <title>ico</title>
    <desc>Created with Sketch.</desc>
    <defs>
        <linearGradient x1="100%" y1="0%" x2="-38.3418912%" y2="100%" id="linearGradient-1">
            <stop stop-color="#3DDAD7" offset="0%"></stop>
            <stop stop-color="#89E200" offset="100%"></stop>
        </linearGradient>
    </defs>
    <g id="Page-1" stroke="none" stroke-width="1" fill="none" fill-rule="evenodd">
        <g id="05" transform="translate(-721.000000, -2438.000000)">
            <g id="3-screen" transform="translate(0.000000, 1860.000000)">
                <g id="block" transform="translate(710.000000, 355.000000)">
                    <g id="icons" transform="translate(4.000000, 0.000000)">
                        <g id="1" transform="translate(0.000000, 207.000000)">
                            <g id="ico">
                                <rect id="Rectangle-15" x="0" y="0" width="80" height="80"></rect>
                                <circle id="Oval" fill="#D0F6E5" opacity="0.5" cx="43" cy="39" r="22"></circle>
                                <circle id="Oval" fill="#4C64D8" opacity="0.0799999982" cx="20" cy="60" r="13"></circle>
                                <path d="M49.998,37 C49.998,33.1342847 46.8637153,30 42.998,30 C39.1322847,30 35.998,33.1342847 35.998,37 C35.998,40.8669859 39.1315552,44 42.998,44 C46.8644448,44 49.998,40.8669859 49.998,37 Z M56.0124977,44.6816534 L50.2678544,42.3072432 C48.8160498,44.2927 46.5704857,45.6608237 43.998,45.9450924 L43.998,56.125986 C45.7235328,56.5700178 46.998,58.1363182 46.998,60 C46.998,62.2102847 45.2082847,64 42.998,64 C40.7877153,64 38.998,62.2102847 38.998,60 C38.998,58.1363182 40.2724672,56.5700178 41.998,56.125986 L41.998,45.9450924 C40.2705759,45.754206 38.6905648,45.0745961 37.3993193,44.0475197 L23.4460914,57.9677872 C23.7980513,58.5633818 24,59.2581298 24,60 C24,62.2102847 22.2102847,64 20,64 C17.7897153,64 16,62.2102847 16,60 C16,57.7911274 17.7903027,56 20,56 C20.7418277,56 21.4363878,56.2018678 22.03181,56.5536394 L35.9812424,42.6371584 C34.7404896,41.0946414 33.998,39.1342348 33.998,37 C33.998,36.0941653 34.1318473,35.2195716 34.380842,34.3949191 L23.0808039,29.552295 C22.3472907,30.4368849 21.2398092,31 20,31 C17.7897153,31 16,29.2102847 16,27 C16,24.7911274 17.7903027,23 20,23 C22.2096973,23 24,24.7911274 24,27 C24,27.2532002 23.9765136,27.5008813 23.9315992,27.740985 L35.1694883,32.5569752 C36.7174401,29.8355512 39.6435035,28 42.998,28 C45.1280517,28 47.0853571,28.7401029 48.6267714,29.9771638 L56.5541312,22.0325894 C56.2020338,21.4369111 56,20.7420266 56,20 C56,17.7897153 57.7897153,16 60,16 C62.2102847,16 64,17.7897153 64,20 C64,22.2088726 62.2096973,24 60,24 C59.2583285,24 58.5639047,23.7982172 57.9685661,23.4465828 L50.0387485,31.3936204 C51.2650381,32.9315779 51.998,34.8802492 51.998,37 C51.998,38.2633131 51.7378475,39.4657205 51.2681948,40.5566042 L56.6671428,42.7881296 C57.38397,41.7105099 58.6093891,41 60,41 C62.2096973,41 64,42.7911274 64,45 C64,47.2088726 62.2096973,49 60,49 C57.7917153,49 56,47.2082847 56,45 C56,44.8928514 56.0042182,44.7866835 56.0124977,44.6816534 Z M22,27 C22,25.8954908 21.1049215,25 20,25 C18.8950785,25 18,25.8954908 18,27 C18,28.1057153 18.8942847,29 20,29 C21.1057153,29 22,28.1057153 22,27 Z M62,20 C62,18.8942847 61.1057153,18 60,18 C58.8942847,18 58,18.8942847 58,20 C58,21.1045092 58.8950785,22 60,22 C61.1049215,22 62,21.1045092 62,20 Z M22,60 C22,58.8954908 21.1049215,58 20,58 C18.8950785,58 18,58.8954908 18,60 C18,61.1057153 18.8942847,62 20,62 C21.1057153,62 22,61.1057153 22,60 Z M44.998,60 C44.998,58.8954908 44.1029215,58 42.998,58 C41.8930785,58 40.998,58.8954908 40.998,60 C40.998,61.1057153 41.8922847,62 42.998,62 C44.1037153,62 44.998,61.1057153 44.998,60 Z M62,45 C62,43.8954908 61.1049215,43 60,43 C58.8962847,43 58,43.8962847 58,45 C58,46.1037153 58.8962847,47 60,47 C61.1049215,47 62,46.1045092 62,45 Z" id="Combined-Shape" fill="url(#linearGradient-1)" fill-rule="nonzero"></path>
                            </g>
                        </g>
                    </g>
                </g>
            </g>
        </g>
    </g>
</svg>