<?xml version="1.0" encoding="UTF-8"?>
<svg width="17px" height="20px" viewBox="0 0 17 20" version="1.1" xmlns="http://www.w3.org/2000/svg" xmlns:xlink="http://www.w3.org/1999/xlink">
    <!-- Generator: Sketch 49 (51002) - http://www.bohemiancoding.com/sketch -->
    <title>icon-oxyn</title>
    <desc>Created with Sketch.</desc>
    <defs>
        <linearGradient x1="100%" y1="0%" x2="-38.3418912%" y2="100%" id="linearGradient-1">
            <stop stop-color="#3DDAD7" offset="0%"></stop>
            <stop stop-color="#89E200" offset="100%"></stop>
        </linearGradient>
    </defs>
    <g id="icon-oxyn" stroke="none" stroke-width="1" fill="none" fill-rule="evenodd" stroke-linecap="round" stroke-linejoin="round">
        <path d="M9.05496193,14.2054146 L12.2261253,8.75907981 C12.3156137,9.14104224 12.3628623,9.55179747 12.3628623,9.98468822 C12.3628623,12.2811229 11.0352277,13.9454471 9.05496193,14.2054146 M5.94440363,13.286874 L10.1428476,6.07485761 C10.4856084,6.23230269 10.7954788,6.44050965 11.0681181,6.6948184 L6.87151062,13.9011761 C6.52891679,13.7457282 6.21787765,13.5383534 5.94440363,13.286874 M4.63713771,9.98468822 C4.63713771,7.67943265 5.97328703,6.01344404 7.96523975,5.76113248 L4.77955122,11.2322657 C4.68622279,10.843646 4.63713771,10.426067 4.63713771,9.98468822 M14.3576533,5.09690066 L15.927875,2.40019602 L13.5681181,2.40019602 L12.8191532,3.68721799 C12.5139575,3.48184037 12.1905636,3.30042903 11.8498063,3.14198535 L13.0964672,1 L10.7368773,1 L9.84149192,2.53750277 C9.41024442,2.46843332 8.96246828,2.43281678 8.50050087,2.43281678 C4.11139308,2.43281678 1,5.63248021 1,10 C1,11.9166358 1.59870442,13.6084215 2.64234673,14.9040979 L1.07212502,17.599804 L3.43371845,17.599804 L4.18268332,16.3137806 C4.48787899,16.5193247 4.81043809,16.700736 5.15019367,16.8580146 L3.90353279,19 L6.26412448,19 L7.15850808,17.4636623 C7.58975558,17.5327317 8.0383665,17.5681818 8.50050087,17.5681818 C12.88844,17.5681818 16,14.3676862 16,10 C16,8.08353059 15.4011286,6.39157852 14.3576533,5.09690066" id="Fill-1" stroke="url(#linearGradient-1)"></path>
    </g>
</svg>