<?xml version="1.0" encoding="utf-8"?>
<!-- Generator: Adobe Illustrator 19.2.0, SVG Export Plug-In . SVG Version: 6.00 Build 0)  -->
<svg version="1.1" id="Capa_1" xmlns="http://www.w3.org/2000/svg" xmlns:xlink="http://www.w3.org/1999/xlink" x="0px" y="0px"
	 viewBox="0 0 442.5 442.5" style="enable-background:new 0 0 442.5 442.5;" xml:space="preserve">
<g>
	<path d="M383,128.2l-29.4-29.4c-4-4-8.9-6.1-14.7-6.1c-5.8,0-10.7,2-14.7,6.1L182.1,241l-63.6-63.9c-4-4-8.9-6.1-14.7-6.1
		c-5.8,0-10.7,2-14.7,6.1l-29.4,29.4c-4,4-6.1,8.9-6.1,14.7c0,5.8,2,10.7,6.1,14.7l78.4,78.4l29.4,29.4c4,4,8.9,6.1,14.7,6.1
		c5.8,0,10.7-2,14.7-6.1l29.4-29.4L383,157.6c4-4,6.1-8.9,6.1-14.7C389,137.1,387,132.2,383,128.2z"/>
</g>
</svg>
