<?xml version="1.0" encoding="utf-8"?>
<svg version="1.1" id="icon" xmlns="http://www.w3.org/2000/svg"
	 viewBox="0 0 27.6 24" style="fill:#ffffff;" >
	<path id="telegram" d="M0.5,11.5l6.4,2.4l2.5,7.9c0.2,0.5,0.8,0.7,1.2,0.4l3.5-2.9c0.4-0.3,0.9-0.3,1.3,0l6.4,4.6
		c0.4,0.3,1.1,0.1,1.2-0.5l4.7-22.5c0.1-0.6-0.4-1.1-1-0.9L0.5,10.1C-0.2,10.4-0.2,11.3,0.5,11.5z M8.9,12.6L21.3,5
		c0.2-0.1,0.5,0.2,0.3,0.3l-10.2,9.5c-0.4,0.3-0.6,0.8-0.7,1.3l-0.3,2.6c0,0.3-0.5,0.4-0.6,0L8.4,14C8.2,13.5,8.4,12.9,8.9,12.6z"/>
</svg>
