<?xml version="1.0" encoding="UTF-8"?>
<svg width="90px" height="90px" viewBox="0 0 90 90" version="1.1" xmlns="http://www.w3.org/2000/svg" xmlns:xlink="http://www.w3.org/1999/xlink">
    <!-- Generator: Sketch 49 (51002) - http://www.bohemiancoding.com/sketch -->
    <title>icon-trees_4</title>
    <desc>Created with Sketch.</desc>
    <defs>
        <radialGradient cx="94.4375%" cy="100%" fx="94.4375%" fy="100%" r="148.821496%" id="radialGradient-1">
            <stop stop-color="#1BDBE8" offset="0%"></stop>
            <stop stop-color="#50319E" offset="100%"></stop>
        </radialGradient>
        <path d="M37.5474853,87.9868924 C33.0603569,85.0248098 25.1244147,81.7379443 19.8570859,80.6593683 C15.1177005,79.6889232 10.2943596,74.865975 9.32438072,70.1285165 C8.24623595,64.8625051 4.95986636,56.9287455 1.99799452,52.4419008 C-0.666713899,48.4055362 -0.665932917,41.5858758 1.99994698,37.5495112 C4.96181881,33.0638375 8.24975036,25.1308587 9.3294571,19.8644569 C10.3006074,15.1269984 15.1251198,10.3044406 19.8645052,9.3351666 C25.1318341,8.25737138 33.0681667,4.97206728 37.5560761,2.01193647 C39.5225872,0.714366266 42.1669901,0 45.0027335,0 C47.8400388,0 50.4856132,0.715146994 52.4532957,2.01349792 C56.9408146,4.97479983 64.8763663,8.26205574 70.1429141,9.3406317 C74.8826901,10.3110768 79.706031,15.134025 80.6760098,19.8714835 C81.7537641,25.1374949 85.0405242,33.0712545 88.002396,37.5580992 C90.6663235,41.5944638 90.665933,48.4141242 88.0008341,52.4500985 C85.0385717,56.9361625 81.7502497,64.869922 80.6713239,70.1355431 C79.7001736,74.8726112 74.8756612,79.6947787 70.1362758,80.664443 C64.8685565,81.7422383 56.9318333,85.0279327 52.4447049,87.9880635 C50.4778033,89.2856337 47.8330099,90 44.9972666,90 C42.1603518,90 39.5139964,89.284853 37.5474853,87.9868924 Z" id="path-2"></path>
        <linearGradient x1="28.8690869%" y1="4.68461065%" x2="71.1309131%" y2="95.3153894%" id="linearGradient-4">
            <stop stop-color="#40BCF9" offset="0%"></stop>
            <stop stop-color="#1E87F0" stop-opacity="0" offset="100%"></stop>
        </linearGradient>
        <circle id="path-5" cx="97.0869635" cy="82.4823754" r="40.6481879"></circle>
        <filter x="-60.3%" y="-50.4%" width="220.5%" height="220.5%" filterUnits="objectBoundingBox" id="filter-6">
            <feOffset dx="0" dy="8" in="SourceAlpha" result="shadowOffsetOuter1"></feOffset>
            <feGaussianBlur stdDeviation="15" in="shadowOffsetOuter1" result="shadowBlurOuter1"></feGaussianBlur>
            <feColorMatrix values="0 0 0 0 0.117647059   0 0 0 0 0.529411765   0 0 0 0 0.941176471  0 0 0 0.2 0" type="matrix" in="shadowBlurOuter1"></feColorMatrix>
        </filter>
        <circle id="path-7" cx="68.1509174" cy="27.7555055" r="40.6481879"></circle>
        <filter x="-60.3%" y="-50.4%" width="220.5%" height="220.5%" filterUnits="objectBoundingBox" id="filter-8">
            <feOffset dx="0" dy="8" in="SourceAlpha" result="shadowOffsetOuter1"></feOffset>
            <feGaussianBlur stdDeviation="15" in="shadowOffsetOuter1" result="shadowBlurOuter1"></feGaussianBlur>
            <feColorMatrix values="0 0 0 0 0.117647059   0 0 0 0 0.529411765   0 0 0 0 0.941176471  0 0 0 0.2 0" type="matrix" in="shadowBlurOuter1"></feColorMatrix>
        </filter>
    </defs>
    <g id="icon-trees_4" stroke="none" stroke-width="1" fill="none" fill-rule="evenodd">
        <g id="bg">
            <mask id="mask-3" fill="white">
                <use xlink:href="#path-2"></use>
            </mask>
            <use id="Mask" fill="url(#radialGradient-1)" xlink:href="#path-2"></use>
            <g id="Oval-6" opacity="0.511096014" mask="url(#mask-3)">
                <use fill="black" fill-opacity="1" filter="url(#filter-6)" xlink:href="#path-5"></use>
                <use fill="url(#linearGradient-4)" fill-rule="evenodd" xlink:href="#path-5"></use>
            </g>
            <g id="Oval-6-Copy-3" opacity="0.360450634" mask="url(#mask-3)">
                <use fill="black" fill-opacity="1" filter="url(#filter-8)" xlink:href="#path-7"></use>
                <use fill="url(#linearGradient-4)" fill-rule="evenodd" xlink:href="#path-7"></use>
            </g>
        </g>
        <g id="trees" transform="translate(18.000000, 19.000000)" fill="#FFFFFF">
            <path d="M44.5818316,40.0638286 L44.5818316,34.7129714 C44.5818316,34.2386857 44.1992842,33.8541143 43.7269263,33.8541143 C43.2551368,33.8541143 42.8725895,34.2386857 42.8725895,34.7129714 L42.8725895,40.0638286 L40.5017053,40.0638286 L38.2200632,33.1889714 L43.7269263,16.5969714 L51.516,40.0638286 L44.5818316,40.0638286 Z M27.6332211,35.3541143 L32.0271158,30.6175429 C32.3488421,30.2701143 32.3295158,29.7266857 31.9850526,29.4032571 C31.6394526,29.0792571 31.0988842,29.0986857 30.7771579,29.4455429 L27.6332211,32.8346857 L27.6332211,26.1158286 C27.6332211,25.6415429 27.2506737,25.2569714 26.7783158,25.2569714 C26.3065263,25.2569714 25.9234105,25.6415429 25.9234105,26.1158286 L25.9234105,32.7792571 L22.7749263,29.4404 C22.4497895,29.0964 21.9092211,29.0815429 21.5664632,29.4078286 C21.2242737,29.7346857 21.2094947,30.2781143 21.5346316,30.6226857 L25.9234105,35.2769714 L25.9234105,40.0638286 L14.8568211,40.0638286 L26.7783158,4.14497143 L38.6998105,40.0638286 L27.6332211,40.0638286 L27.6332211,35.3541143 Z M9.82970526,33.8541143 C9.35734737,33.8541143 8.9748,34.2386857 8.9748,34.7129714 L8.9748,40.0638286 L2.04063158,40.0638286 L9.82970526,16.5969714 L15.3365684,33.1889714 L13.0549263,40.0638286 L10.6840421,40.0638286 L10.6840421,34.7129714 C10.6840421,34.2386857 10.3014947,33.8541143 9.82970526,33.8541143 Z M18.3042947,12.2084 L20.3022947,18.2289714 L16.2375158,30.4746857 L14.2395158,24.4546857 L18.3042947,12.2084 Z M35.2529053,12.2084 L39.3171158,24.4546857 L37.3191158,30.4746857 L33.2543368,18.2284 L35.2529053,12.2084 Z M53.5128632,40.6512571 L44.5374947,13.6106857 C44.4215368,13.2598286 44.0952632,13.0232571 43.7269263,13.0232571 C43.3597263,13.0232571 43.0323158,13.2598286 42.9163579,13.6106857 L40.2180632,21.7404 L36.0634737,9.22154286 C35.9469474,8.87125714 35.6201053,8.63468571 35.2529053,8.63468571 C34.8845684,8.63468571 34.5582947,8.87125714 34.4417684,9.22154286 L32.3533895,15.5141143 L27.5888842,1.15868571 C27.4723579,0.807828571 27.1460842,0.571257143 26.7783158,0.571257143 C26.4105474,0.571257143 26.0842737,0.807828571 25.9677474,1.15868571 L21.2032421,15.5141143 L19.1142947,9.22211429 C18.9983368,8.87125714 18.6714947,8.63468571 18.3042947,8.63468571 C17.9365263,8.63468571 17.6096842,8.87125714 17.4931579,9.22211429 L13.3385684,21.7404 L10.6402737,13.6106857 C10.5237474,13.2598286 10.1974737,13.0232571 9.82970526,13.0232571 C9.46193684,13.0232571 9.13509474,13.2598286 9.01913684,13.6106857 L0.0437684211,40.6512571 C-0.0432,40.9129714 0.000568421053,41.2009714 0.161431579,41.4249714 C0.321726316,41.6495429 0.579789474,41.7821143 0.854336842,41.7821143 L8.9748,41.7821143 L8.9748,50.5861143 C8.9748,51.0604 9.35734737,51.4455429 9.82970526,51.4455429 C10.3014947,51.4455429 10.6840421,51.0604 10.6840421,50.5861143 L10.6840421,41.7821143 L25.9234105,41.7821143 L25.9234105,50.5861143 C25.9234105,51.0604 26.3065263,51.4455429 26.7783158,51.4455429 C27.2506737,51.4455429 27.6332211,51.0604 27.6332211,50.5861143 L27.6332211,41.7821143 L42.8725895,41.7821143 L42.8725895,50.5861143 C42.8725895,51.0604 43.2551368,51.4455429 43.7269263,51.4455429 C44.1992842,51.4455429 44.5818316,51.0604 44.5818316,50.5861143 L44.5818316,41.7821143 L52.7017263,41.7821143 C52.9768421,41.7821143 53.2349053,41.6495429 53.3952,41.4249714 C53.5560632,41.2009714 53.5998316,40.9129714 53.5128632,40.6512571 Z" id="tree"></path>
            <path d="M18.3040105,43.5005143 C17.8316526,43.5005143 17.4496737,43.8850857 17.4496737,44.3593714 L17.4496737,50.5862286 C17.4496737,51.0605143 17.8316526,51.4456571 18.3040105,51.4456571 C18.7763684,51.4456571 19.1583474,51.0605143 19.1583474,50.5862286 L19.1583474,44.3593714 C19.1583474,43.8850857 18.7758,43.5005143 18.3040105,43.5005143" id="body"></path>
            <path d="M35.2528484,43.5005143 C34.7804905,43.5005143 34.3979432,43.8850857 34.3979432,44.3593714 L34.3979432,50.5862286 C34.3979432,51.0605143 34.7804905,51.4456571 35.2528484,51.4456571 C35.7246379,51.4456571 36.1071853,51.0605143 36.1071853,50.5862286 L36.1071853,44.3593714 C36.1071853,43.8850857 35.7246379,43.5005143 35.2528484,43.5005143" id="body"></path>
            <path d="M12.1141326,18.0649714 L13.3657958,14.2929714 L14.5725537,17.9272571 L15.7929537,16.1764 L14.1763642,11.3066857 C14.0604063,10.9564 13.7335642,10.7198286 13.3657958,10.7198286 C12.9980274,10.7198286 12.6717537,10.9558286 12.5552274,11.3066857 L10.9392063,16.1764 L12.1141326,18.0649714 Z" id="top"></path>
            <path d="M39.0192063,18.0649714 L40.2714379,14.2929714 L41.4776274,17.9272571 L42.6985958,16.1764 L41.0820063,11.3066857 C40.96548,10.9564 40.6392063,10.7198286 40.2714379,10.7198286 C39.9036695,10.7198286 39.5768274,10.9558286 39.4603011,11.3066857 L37.8448484,16.1764 L39.0192063,18.0649714 Z" id="top"></path>
            <path d="M20.3334442,13.4494286 L21.5851074,9.67742857 L22.7918653,13.3117143 L24.0122653,11.5608571 L22.3956758,6.69114286 C22.2797179,6.34085714 21.9528758,6.10428571 21.5851074,6.10428571 C21.2173389,6.10428571 20.8910653,6.34028571 20.7745389,6.69114286 L19.1585179,11.5608571 L20.3334442,13.4494286 Z" id="top"></path>
            <path d="M31.0052084,13.4494286 L32.2568716,9.67742857 L33.4630611,13.3117143 L34.6840295,11.5608571 L33.06744,6.69114286 C32.9514821,6.34085714 32.6252084,6.10428571 32.2568716,6.10428571 C31.8896716,6.10428571 31.5622611,6.34028571 31.4463032,6.69114286 L29.8302821,11.5608571 L31.0052084,13.4494286 Z" id="top"></path>
        </g>
    </g>
</svg>