<?xml version="1.0" encoding="UTF-8"?>
<svg width="52px" height="53px" viewBox="0 0 52 53" version="1.1" xmlns="http://www.w3.org/2000/svg" xmlns:xlink="http://www.w3.org/1999/xlink">
    <!-- Generator: Sketch 49 (51002) - http://www.bohemiancoding.com/sketch -->
    <title>ico</title>
    <desc>Created with Sketch.</desc>
    <defs>
        <linearGradient x1="100%" y1="0%" x2="-38.3418912%" y2="100%" id="linearGradient-1">
            <stop stop-color="#3DDAD7" offset="0%"></stop>
            <stop stop-color="#89E200" offset="100%"></stop>
        </linearGradient>
    </defs>
    <g id="Page-1" stroke="none" stroke-width="1" fill="none" fill-rule="evenodd">
        <g id="05" transform="translate(-1065.000000, -2437.000000)">
            <g id="3-screen" transform="translate(0.000000, 1860.000000)">
                <g id="block" transform="translate(710.000000, 355.000000)">
                    <g id="icons" transform="translate(4.000000, 0.000000)">
                        <g id="4" transform="translate(331.000000, 209.000000)">
                            <g id="ico">
                                <rect id="Rectangle-9" x="0" y="0" width="80" height="80"></rect>
                                <circle id="Oval" fill="#D0F6E5" opacity="0.5" cx="50" cy="35" r="22"></circle>
                                <circle id="Oval" fill="#4C64D8" opacity="0.0800000057" cx="35" cy="53" r="13"></circle>
                                <path d="M31,44 L49,44 C54.7819175,44 58,40.6650763 58,36 C58,31.0522847 54.9477153,28 49,28 C48.4477153,28 48,27.5522847 48,27 C48,26.9426224 47.9962446,26.8174424 47.9844818,26.6344658 C47.96426,26.319904 47.9276116,25.9669933 47.8704386,25.5858405 C47.7073309,24.4984557 47.4142481,23.4129639 46.9630785,22.4103647 C45.7092319,19.624039 43.5167793,18 40,18 C36.4832207,18 34.2907681,19.624039 33.0369215,22.4103647 C32.5857519,23.4129639 32.2926691,24.4984557 32.1295614,25.5858405 C32.0723884,25.9669933 32.03574,26.319904 32.0155182,26.6344658 C32.0037554,26.8174424 32,26.9426224 32,27 C32,27.5522847 31.5522847,28 31,28 C25.2275718,28 22,31.3517092 22,36 C22,40.6482908 25.2275718,44 31,44 Z M39,50 L41,50 L41,46 L39,46 L39,50 Z M37,50 L37,46 L31,46 C24.1057615,46 20,41.7363246 20,36 C20,30.5299831 23.7333922,26.3990544 30.0579707,26.0272887 C30.0809106,25.8035232 30.1116079,25.5563648 30.1516886,25.2891595 C30.3401434,24.0327943 30.6798731,22.7745361 31.2130785,21.5896353 C32.7717319,18.125961 35.6417793,16 40,16 C44.3582207,16 47.2282681,18.125961 48.7869215,21.5896353 C49.3201269,22.7745361 49.6598566,24.0327943 49.8483114,25.2891595 C49.8882116,25.555161 49.9188126,25.8012958 49.9417188,26.024263 C56.4027762,26.362979 60,30.2226301 60,36 C60,41.7540006 55.9027619,46 49,46 L43,46 L43,50 L48.9993101,50 C49.6818155,50 50.1637478,50.6686967 49.9479207,51.3162278 L45.9482273,63.3162278 C45.8121237,63.7245699 45.4300141,64 44.9996167,64 L35.0003833,64 C34.5699859,64 34.1878763,63.7245699 34.0517727,63.3162278 L30.0520793,51.3162278 C29.8362522,50.6686967 30.3181845,50 31.0006899,50 L37,50 Z M47.5,52 L32.5,52 L35.7840403,62 L44.2159597,62 L47.5,52 Z" id="Combined-Shape" fill="url(#linearGradient-1)" fill-rule="nonzero"></path>
                            </g>
                        </g>
                    </g>
                </g>
            </g>
        </g>
    </g>
</svg>