<?xml version="1.0" encoding="UTF-8"?>
<svg width="90px" height="90px" viewBox="0 0 90 90" version="1.1" xmlns="http://www.w3.org/2000/svg" xmlns:xlink="http://www.w3.org/1999/xlink">
    <!-- Generator: Sketch 49 (51002) - http://www.bohemiancoding.com/sketch -->
    <title>icon-trees_5</title>
    <desc>Created with Sketch.</desc>
    <defs>
        <radialGradient cx="94.4375%" cy="100%" fx="94.4375%" fy="100%" r="190.961954%" id="radialGradient-1">
            <stop stop-color="#A92080" offset="0%"></stop>
            <stop stop-color="#E98434" offset="100%"></stop>
        </radialGradient>
        <path d="M37.5474853,87.9868924 C33.0603569,85.0248098 25.1244147,81.7379443 19.8570859,80.6593683 C15.1177005,79.6889232 10.2943596,74.865975 9.32438072,70.1285165 C8.24623595,64.8625051 4.95986636,56.9287455 1.99799452,52.4419008 C-0.666713899,48.4055362 -0.665932917,41.5858758 1.99994698,37.5495112 C4.96181881,33.0638375 8.24975036,25.1308587 9.3294571,19.8644569 C10.3006074,15.1269984 15.1251198,10.3044406 19.8645052,9.3351666 C25.1318341,8.25737138 33.0681667,4.97206728 37.5560761,2.01193647 C39.5225872,0.714366266 42.1669901,0 45.0027335,0 C47.8400388,0 50.4856132,0.715146994 52.4532957,2.01349792 C56.9408146,4.97479983 64.8763663,8.26205574 70.1429141,9.3406317 C74.8826901,10.3110768 79.706031,15.134025 80.6760098,19.8714835 C81.7537641,25.1374949 85.0405242,33.0712545 88.002396,37.5580992 C90.6663235,41.5944638 90.665933,48.4141242 88.0008341,52.4500985 C85.0385717,56.9361625 81.7502497,64.869922 80.6713239,70.1355431 C79.7001736,74.8726112 74.8756612,79.6947787 70.1362758,80.664443 C64.8685565,81.7422383 56.9318333,85.0279327 52.4447049,87.9880635 C50.4778033,89.2856337 47.8330099,90 44.9972666,90 C42.1603518,90 39.5139964,89.284853 37.5474853,87.9868924 Z" id="path-2"></path>
        <linearGradient x1="50%" y1="0%" x2="50%" y2="100%" id="linearGradient-4">
            <stop stop-color="#F5515F" offset="0%"></stop>
            <stop stop-color="#9F041B" offset="100%"></stop>
        </linearGradient>
        <linearGradient x1="0%" y1="6.24500451e-15%" x2="101.999998%" y2="100.999999%" id="linearGradient-5">
            <stop stop-color="#860961" offset="0%"></stop>
            <stop stop-color="#C86DD7" offset="100%"></stop>
        </linearGradient>
    </defs>
    <g id="icon-trees_5" stroke="none" stroke-width="1" fill="none" fill-rule="evenodd">
        <g id="bg">
            <mask id="mask-3" fill="white">
                <use xlink:href="#path-2"></use>
            </mask>
            <use id="Mask" fill="url(#radialGradient-1)" xlink:href="#path-2"></use>
            <circle id="Oval-6-Copy-3" fill="url(#linearGradient-4)" opacity="0.476845562" mask="url(#mask-3)" cx="68.1509174" cy="27.7555055" r="40.6481879"></circle>
            <circle id="Oval-6" fill="url(#linearGradient-5)" opacity="0.24000001" mask="url(#mask-3)" cx="97.0869635" cy="82.4823754" r="40.6481879"></circle>
        </g>
        <g id="trees" transform="translate(18.000000, 19.000000)" fill="#FFFFFF">
            <path d="M44.5818316,39.7132467 L44.5818316,34.40698 C44.5818316,33.9366467 44.1992842,33.55528 43.7269263,33.55528 C43.2551368,33.55528 42.8725895,33.9366467 42.8725895,34.40698 L42.8725895,39.7132467 L40.5017053,39.7132467 L38.2200632,32.89568 L43.7269263,16.4419467 L51.516,39.7132467 L44.5818316,39.7132467 Z M27.6332211,35.04278 L32.0271158,30.34568 C32.3488421,30.0011467 32.3295158,29.4622467 31.9850526,29.1415133 C31.6394526,28.8202133 31.0988842,28.83948 30.7771579,29.1834467 L27.6332211,32.5443467 L27.6332211,25.88148 C27.6332211,25.4111467 27.2506737,25.02978 26.7783158,25.02978 C26.3065263,25.02978 25.9234105,25.4111467 25.9234105,25.88148 L25.9234105,32.48938 L22.7749263,29.1783467 C22.4497895,28.8372133 21.9092211,28.82248 21.5664632,29.1460467 C21.2242737,29.47018 21.2094947,30.00908 21.5346316,30.35078 L25.9234105,34.96628 L25.9234105,39.7132467 L14.8568211,39.7132467 L26.7783158,4.09371333 L38.6998105,39.7132467 L27.6332211,39.7132467 L27.6332211,35.04278 Z M9.82970526,33.55528 C9.35734737,33.55528 8.9748,33.9366467 8.9748,34.40698 L8.9748,39.7132467 L2.04063158,39.7132467 L9.82970526,16.4419467 L15.3365684,32.89568 L13.0549263,39.7132467 L10.6840421,39.7132467 L10.6840421,34.40698 C10.6840421,33.9366467 10.3014947,33.55528 9.82970526,33.55528 Z M18.3042947,12.0899467 L20.3022947,18.0603467 L16.2375158,30.2040133 L14.2395158,24.23418 L18.3042947,12.0899467 Z M35.2529053,12.0899467 L39.3171158,24.23418 L37.3191158,30.2040133 L33.2543368,18.05978 L35.2529053,12.0899467 Z M53.5128632,40.29578 L44.5374947,13.4805467 C44.4215368,13.1326133 44.0952632,12.8980133 43.7269263,12.8980133 C43.3597263,12.8980133 43.0323158,13.1326133 42.9163579,13.4805467 L40.2180632,21.5425133 L36.0634737,9.12798 C35.9469474,8.78061333 35.6201053,8.54601333 35.2529053,8.54601333 C34.8845684,8.54601333 34.5582947,8.78061333 34.4417684,9.12798 L32.3533895,15.3681133 L27.5888842,1.13231333 C27.4723579,0.78438 27.1460842,0.54978 26.7783158,0.54978 C26.4105474,0.54978 26.0842737,0.78438 25.9677474,1.13231333 L21.2032421,15.3681133 L19.1142947,9.12854667 C18.9983368,8.78061333 18.6714947,8.54601333 18.3042947,8.54601333 C17.9365263,8.54601333 17.6096842,8.78061333 17.4931579,9.12854667 L13.3385684,21.5425133 L10.6402737,13.4805467 C10.5237474,13.1326133 10.1974737,12.8980133 9.82970526,12.8980133 C9.46193684,12.8980133 9.13509474,13.1326133 9.01913684,13.4805467 L0.0437684211,40.29578 C-0.0432,40.5553133 0.000568421053,40.8409133 0.161431579,41.0630467 C0.321726316,41.2857467 0.579789474,41.4172133 0.854336842,41.4172133 L8.9748,41.4172133 L8.9748,50.1478467 C8.9748,50.61818 9.35734737,51.0001133 9.82970526,51.0001133 C10.3014947,51.0001133 10.6840421,50.61818 10.6840421,50.1478467 L10.6840421,41.4172133 L25.9234105,41.4172133 L25.9234105,50.1478467 C25.9234105,50.61818 26.3065263,51.0001133 26.7783158,51.0001133 C27.2506737,51.0001133 27.6332211,50.61818 27.6332211,50.1478467 L27.6332211,41.4172133 L42.8725895,41.4172133 L42.8725895,50.1478467 C42.8725895,50.61818 43.2551368,51.0001133 43.7269263,51.0001133 C44.1992842,51.0001133 44.5818316,50.61818 44.5818316,50.1478467 L44.5818316,41.4172133 L52.7017263,41.4172133 C52.9768421,41.4172133 53.2349053,41.2857467 53.3952,41.0630467 C53.5560632,40.8409133 53.5998316,40.5553133 53.5128632,40.29578 Z" id="body"></path>
            <path d="M18,44 C17.4471058,44 17,44.3872267 17,44.8647871 L17,51.1346375 C17,51.6121979 17.4471058,52 18,52 C18.5528942,52 19,51.6121979 19,51.1346375 L19,44.8647871 C19,44.3872267 18.5522289,44 18,44" id="body"></path>
            <path d="M35.0003326,44 C34.4476222,44 34,44.3872267 34,44.8647871 L34,51.1346375 C34,51.6121979 34.4476222,52 35.0003326,52 C35.5523778,52 36,51.6121979 36,51.1346375 L36,44.8647871 C36,44.3872267 35.5523778,44 35.0003326,44" id="body"></path>
            <path d="M12.2103291,18 L13.4997072,14.4052435 L14.742827,17.8687568 L16,16.2001712 L14.3346996,11.5592812 C14.2152477,11.2254551 13.8785572,11 13.4997072,11 C13.1208572,11 12.7847523,11.2249105 12.6647148,11.5592812 L11,16.2001712 L12.2103291,18 Z" id="top"></path>
            <path d="M39.2097435,18 L40.4997072,14.4052435 L41.7422415,17.8687568 L43,16.2001712 L41.3346996,11.5592812 C41.2146621,11.2254551 40.8785572,11 40.4997072,11 C40.1208572,11 39.7841668,11.2249105 39.6641293,11.5592812 L38,16.2001712 L39.2097435,18 Z" id="top"></path>
            <path d="M20.2103291,13 L21.4997072,9.4052435 L22.742827,12.8687568 L24,11.2001712 L22.3346996,6.55928116 C22.2152477,6.22545511 21.8785572,6 21.4997072,6 C21.1208572,6 20.7847523,6.22491053 20.6647148,6.55928116 L19,11.2001712 L20.2103291,13 Z" id="top"></path>
            <path d="M31.2103291,13 L32.4997072,9.4052435 L33.7422415,12.8687568 L35,11.2001712 L33.3346996,6.55928116 C33.2152477,6.22545511 32.8791428,6 32.4997072,6 C32.1214428,6 31.7841668,6.22491053 31.6647148,6.55928116 L30,11.2001712 L31.2103291,13 Z" id="top"></path>
        </g>
    </g>
</svg>