<?xml version="1.0" encoding="utf-8"?>
<svg version="1.1" id="icon" xmlns="http://www.w3.org/2000/svg"
	 viewBox="0 0 27.3 24" style="fill:#ffffff;" >
		<path id="medium" d="M27.3,4.7c0-0.2-0.1-0.3-0.2-0.4L18.6,0c-0.2-0.1-0.4,0-0.6,0.2L12.3,9l-3-4.6c0-0.1-0.1-0.1-0.2-0.2L0.6,0
			C0.4-0.1,0,0.1,0,0.4v4.2c0,0.2,0.2,0.4,0.4,0.4c0.2,0,0.4-0.2,0.4-0.4V1.2L8.5,5v17.9L0.9,19V6.6c0-0.2-0.2-0.4-0.4-0.4
			C0.2,6.1,0,6.3,0,6.6v12.7c0,0.2,0.1,0.3,0.2,0.4L8.7,24c0.3,0.1,0.6-0.1,0.6-0.4v-8.2L26.7,24c0.3,0.1,0.6-0.1,0.6-0.4L27.3,4.7
			C27.3,4.7,27.3,4.7,27.3,4.7z M9.4,14.3V6.2l7.7,12L9.4,14.3z M26.4,22.8L19,19.1l5.8-10c0.1-0.2,0.1-0.5-0.2-0.6
			c-0.2-0.1-0.5-0.1-0.6,0.2l-5.7,9.8l-5.6-8.6L18.5,1l7.7,3.9l-1.4,2.4c-0.1,0.2-0.1,0.5,0.2,0.6C25.2,8,25.5,8,25.6,7.7l0.8-1.4
			V22.8z"/>
</svg>
