<?xml version="1.0" encoding="utf-8"?>
<!-- Generator: Adobe Illustrator 19.2.0, SVG Export Plug-In . SVG Version: 6.00 Build 0)  -->
<svg version="1.1" id="Layer_1" xmlns="http://www.w3.org/2000/svg" xmlns:xlink="http://www.w3.org/1999/xlink" x="0px" y="0px"
	 viewBox="0 0 750 471" style="enable-background:new 0 0 750 471;" xml:space="preserve">
<style type="text/css">
	.st0{fill:#FFFFFF;stroke:#E0E3E5;stroke-width:2;stroke-miterlimit:10;}
	.st1{fill:#2BA6DF;stroke:#E0E3E5;stroke-width:2;stroke-miterlimit:10;}
	.st2{fill:#3F3A39;stroke:#E0E3E5;stroke-width:2;stroke-miterlimit:10;}
</style>
<g>
	<path class="st0" d="M40,0h670c22.1,0,40,17.9,40,40v391c0,22.1-17.9,40-40,40H40c-22.1,0-40-17.9-40-40V40C0,17.9,17.9,0,40,0z"/>
	<path class="st1" d="M99.5,243.4c-4.8,0.6-13.2,2.4-18,6.6c-14.4,12.6-6,34.8,23.4,34.8c16.8,0,33.6-10.8,46.8-27.6
		C132.5,248.1,116.9,241.5,99.5,243.4L99.5,243.4z"/>
	<path class="st1" d="M207,258.8c27,9,33,9.6,33,9.6v-96c0-16.2-13.2-29.4-30-29.4H84c-16.2,0-30,13.2-30,29.4v126
		c0,16.2,13.2,29.4,30,29.4h126c16.2,0,30-13.2,30-29.4v-1.2c0,0-48-19.8-72.6-31.8c-16.2,19.8-37.2,32.4-59.4,32.4
		c-37.2,0-49.8-32.4-31.8-53.4c3.6-4.8,10.2-9,20.4-11.4c15.6-3.6,40.8,2.4,64.2,10.2c4.2-7.8,7.8-16.2,10.2-25.2H98.4v-7.2h37.2
		v-14.4H90v-7.2h45.6v-18.6c0,0,0-3,3-3h18v22.2h45v6.6h-45v13.2h36.6c-3.6,14.4-9,27.6-15.6,39C189.6,252.8,199.8,256.4,207,258.8
		L207,258.8z"/>
	<path class="st2" d="M325.7,186.6l39.6,85.8h-21l-10.8-22.8h-32.4l-10.8,22.8h-13.8l40.2-83.4c0,0,1.2-2.4,3.6-2.4L325.7,186.6
		L325.7,186.6z M304.7,241.8h25.2l-12.6-27L304.7,241.8L304.7,241.8z M392.1,273.1h-19.2v-81.6c0-2.4,1.2-3.6,4.2-3.6h15V273.1z
		 M428.1,272.5h-19.2v-61.8c0-2.4,1.2-3.6,4.2-3.6h15V272.5L428.1,272.5z M451.6,208.4h12.6v6c2.4-1.8,4.8-3.6,7.8-4.2
		c3-1.2,6-1.8,10.2-1.8c4.2,0,7.8,0.6,10.8,2.4c3.6,1.8,6,3.6,8.4,6.6c2.4,3,4.2,6,5.4,9.6c1.2,3.6,1.8,7.2,1.8,11.4
		c0,5.4-0.6,10.2-2.4,14.4c-1.8,4.2-3.6,8.4-6.6,11.4s-6,6-10.2,7.8c-4.2,1.8-8.4,2.4-13.2,2.4h-6.6c-1.8,0-3.6-0.6-5.4-1.2v21.6
		H445v-78.6C444.4,208.4,447.4,208.4,451.6,208.4z M464.2,255.2c0,1.8,0,3,0.6,4.2s1.2,2.4,2.4,3.6c1.2,1.2,2.4,1.8,3.6,2.4
		s3,0.6,4.8,0.6s3-0.6,4.8-1.8c1.2-1.2,3-2.4,3.6-4.8c0.6-2.4,1.8-4.2,2.4-7.2s1.2-5.4,1.2-9c0-4.2,0-7.8-0.6-10.8s-1.2-5.4-2.4-7.8
		c-1.2-1.8-2.4-3.6-3.6-4.8c-1.2-1.2-3-1.8-4.8-1.8c-1.2,0-2.4,0-3.6,0.6c-1.2,0.6-2.4,1.2-3,1.8c-1.2,0.6-1.8,1.8-3,2.4
		c-1.2,1.2-1.8,1.8-2.4,3V255.2L464.2,255.2z M545.3,208.4c4.8,0,8.4,0.6,12,1.2c3,0.6,6,1.8,8.4,3.6c2.4,1.8,3.6,3.6,4.8,5.4
		c1.2,2.4,1.8,4.8,1.8,7.2v47.4h-19.2v-4.8c-1.2,1.2-2.4,1.8-3,2.4l-3.6,1.8c-1.2,0.6-2.4,1.2-4.2,1.2c-1.8,0.6-3.6,0.6-5.4,0.6
		c-3,0-5.4-0.6-7.8-1.2c-2.4-0.6-4.2-1.8-6-3.6c-1.8-1.2-3-3-3.6-5.4c-0.6-1.8-1.2-4.2-1.2-6.6s0.6-4.8,1.2-6.6
		c0.6-1.8,2.4-3.6,3.6-5.4c1.2-1.8,3.6-3,5.4-4.2c2.4-1.2,4.2-2.4,7.2-3.6c2.4-1.2,4.8-1.8,7.8-3c2.4-0.6,5.4-1.8,7.8-2.4l2.4-0.6
		v-6.6c0-1.8,0-3.6-0.6-5.4l-1.8-3.6c-0.6-0.6-1.8-1.8-2.4-1.8c-1.2-0.6-2.4-0.6-3.6-0.6c0,0-10.2,0-19.2,7.8l-4.2-6.6
		C520,216.2,530.8,208.4,545.3,208.4L545.3,208.4z M551.9,240.2c-1.8,0.6-3.6,1.8-5.4,3l-5.4,3.6c-1.8,1.2-3,2.4-3.6,4.2
		c-1.2,1.2-1.2,3-1.2,4.2s0,2.4,0.6,3.6c0.6,1.2,0.6,1.8,1.2,3s1.2,1.2,1.8,1.8c0.6,0.6,1.2,0.6,2.4,0.6c1.8,0,3-0.6,4.8-1.2
		l5.4-3.6v-19.2L551.9,240.2L551.9,240.2z M598.4,294.2h-12.6l-0.6-11.4c0,0,15.6,0.6,20.4-5.4c1.8-2.4,3-9,3-9l-31.2-60h21l19.8,39
		l17.4-39h13.8l-31.8,70.8C616.4,281.6,611.6,294.2,598.4,294.2L598.4,294.2z"/>
	<ellipse class="st1" cx="418.6" cy="189.5" rx="9.6" ry="8.5"/>
	<path class="st2" d="M668.9,158.3h-6.6v-1.2h14.4v1.2h-6.6v18.6h-1.8v-18.6H668.9z M679.6,157.1h2.4l4.2,11.4l1.8,4.2
		c0.6-1.2,1.2-3,1.8-4.2l4.2-11.4h2.4v20.4H694v-18l-1.8,4.8l-4.2,12h-1.2l-4.2-12l-1.8-4.8v18H679v-20.4H679.6L679.6,157.1z"/>
</g>
</svg>
