<?xml version="1.0" encoding="UTF-8"?>
<svg width="51px" height="56px" viewBox="0 0 51 56" version="1.1" xmlns="http://www.w3.org/2000/svg" xmlns:xlink="http://www.w3.org/1999/xlink">
    <!-- Generator: Sketch 49 (51002) - http://www.bohemiancoding.com/sketch -->
    <title>ico</title>
    <desc>Created with Sketch.</desc>
    <defs>
        <linearGradient x1="100%" y1="0%" x2="-38.3418912%" y2="100%" id="linearGradient-1">
            <stop stop-color="#3DDAD7" offset="0%"></stop>
            <stop stop-color="#89E200" offset="100%"></stop>
        </linearGradient>
    </defs>
    <g id="Page-1" stroke="none" stroke-width="1" fill="none" fill-rule="evenodd">
        <g id="05" transform="translate(-1055.000000, -2233.000000)">
            <g id="3-screen" transform="translate(0.000000, 1860.000000)">
                <g id="block" transform="translate(710.000000, 355.000000)">
                    <g id="icons" transform="translate(4.000000, 0.000000)">
                        <g id="3" transform="translate(331.000000, 1.000000)">
                            <g id="ico">
                                <circle id="Oval" fill="#D0F6E5" opacity="0.5" cx="32" cy="51" r="22"></circle>
                                <circle id="Oval" fill="#4C64D8" opacity="0.0799999982" cx="28" cy="30" r="13"></circle>
                                <path d="M41,59.5460833 L43.5,54.6823333 L43.5,57.0006667 L47.73,58.209 C48.6116667,58.4623333 49.3333333,59.4173333 49.3333333,60.334 L49.3333333,61.1673333 L41.8333333,61.1673333 L32.6666667,61.1673333 L32.6666667,60.334 C32.6666667,59.4173333 33.3883333,58.4623333 34.2683333,58.209 L38.5,57.0006667 L38.5,54.6823333 L41,59.5460833 Z M54.3333333,33.0075741 L54.3333333,35.3328333 L58.5633333,36.5428333 C59.445,36.7945 60.1666667,37.7495 60.1666667,38.6661667 L60.1666667,39.4995 L52.666067,39.4995 L52.6666667,39.5006667 L43.5,39.5006667 L43.5,38.6673333 C43.5,37.7506667 44.2216667,36.7956667 45.1016667,36.5423333 L49.3333333,35.334 L49.3333333,33.0156667 L51.8314309,37.8757155 L54.3196845,33.0161561 C53.5872054,33.4750459 52.7382167,33.7375 51.8333333,33.7375 C49.0716667,33.7375 46.8333333,31.2958333 46.8333333,28.2858333 C46.8333333,25.2741667 49.0716667,22.8341667 51.8333333,22.8341667 C54.5933333,22.8341667 56.8333333,25.2741667 56.8333333,28.2858333 C56.8333333,30.3028503 55.8274812,32.0646622 54.3333333,33.0075741 Z M32.6666667,33.0075741 L32.6666667,35.3335 L36.8966667,36.5418333 C37.7783333,36.7951667 38.5,37.7501667 38.5,38.6668333 L38.5,39.5001667 L30.999743,39.5001667 L21.8333333,39.5006667 L21.8333333,38.6673333 C21.8333333,37.7506667 22.555,36.7956667 23.435,36.5423333 L27.6666667,35.334 L27.6666667,33.0156667 L30.1632322,37.872735 L32.6336638,33.0282187 C31.9056002,33.4796423 31.0635913,33.7375 30.1666667,33.7375 C27.405,33.7375 25.1666667,31.2958333 25.1666667,28.2858333 C25.1666667,25.2741667 27.405,22.8341667 30.1666667,22.8341667 C32.9266667,22.8341667 35.1666667,25.2741667 35.1666667,28.2858333 C35.1666667,30.3028503 34.1608146,32.0646622 32.6666667,33.0075741 Z M46,49.9525 C46,52.9625 43.76,55.4041667 41,55.4041667 C38.2383333,55.4041667 36,52.9625 36,49.9525 C36,46.9408333 38.2383333,44.5008333 41,44.5008333 C43.76,44.5008333 46,46.9408333 46,49.9525 Z M27.3131133,43.1868867 L28.0202201,42.4797799 L32.1868867,46.6464466 L31.4797799,47.3535534 L27.3131133,43.1868867 Z M53.9797799,42.4797799 L54.6868867,43.1868867 L50.5202201,47.3535534 L49.8131133,46.6464466 L53.9797799,42.4797799 Z M45.9218333,48.9515 C45.0885,49.7848333 42.7318333,49.7898333 41.8335,48.1181667 C40.1668333,49.7848333 37.4585,49.7848333 36.1101667,48.8331667 M35.1146667,27.3303333 C34.2813333,28.1636667 31.898,28.1236667 30.9996667,26.452 C29.333,28.1186667 26.6246667,28.1186667 25.278,27.1653333 M56.7551667,27.3255 C55.9218333,28.1588333 53.5651667,28.1238333 52.6668333,26.4521667 C51.0001667,28.1188333 48.2918333,28.1188333 46.9435,27.1655" id="Combined-Shape" stroke="url(#linearGradient-1)" stroke-width="1.6" stroke-linejoin="round"></path>
                            </g>
                        </g>
                    </g>
                </g>
            </g>
        </g>
    </g>
</svg>