<?xml version="1.0" encoding="UTF-8"?>
<svg width="59px" height="70px" viewBox="0 0 59 70" version="1.1" xmlns="http://www.w3.org/2000/svg" xmlns:xlink="http://www.w3.org/1999/xlink">
    <!-- Generator: Sketch 49 (51002) - http://www.bohemiancoding.com/sketch -->
    <title>ico</title>
    <desc>Created with Sketch.</desc>
    <defs>
        <linearGradient x1="100%" y1="0%" x2="-38.3418912%" y2="100%" id="linearGradient-1">
            <stop stop-color="#3DDAD7" offset="0%"></stop>
            <stop stop-color="#89E200" offset="100%"></stop>
        </linearGradient>
    </defs>
    <g id="Page-1" stroke="none" stroke-width="1" fill="none" fill-rule="evenodd" stroke-linecap="round" stroke-linejoin="round">
        <g id="05" transform="translate(-1118.000000, -1745.000000)" stroke="url(#linearGradient-1)" stroke-width="2.6">
            <g id="2-screen" transform="translate(0.000000, 1000.000000)">
                <g id="liver-data" transform="translate(231.000000, 719.000000)">
                    <g id="ox" transform="translate(889.000000, 0.000000)">
                        <g id="ico" transform="translate(0.000000, 28.000000)">
                            <path d="M29.5348604,48.4198535 L41.1624594,28.4499593 C41.4905837,29.8504882 41.6638284,31.3565907 41.6638284,32.9438568 C41.6638284,41.3641172 36.795835,47.4666395 29.5348604,48.4198535 M18.12948,45.0518714 L33.5237745,18.6078112 C34.7805641,19.1851098 35.9167557,19.9485354 36.9164329,20.8810008 L21.5288723,47.3043124 C20.2726949,46.7343369 19.1322181,45.9739626 18.12948,45.0518714 M13.3361716,32.9438568 C13.3361716,24.4912531 18.2353858,18.3826282 25.5392124,17.4574858 L13.8583545,37.5183076 C13.5161502,36.0933686 13.3361716,34.5622457 13.3361716,32.9438568 M48.978062,15.0219691 L54.7355416,5.13405207 L46.0830996,5.13405207 L43.3368951,9.85313263 C42.2178443,9.10008137 41.0320667,8.43490643 39.7826232,7.8539463 L44.3537131,0 L35.7018833,0 L32.4188037,5.63751017 C30.8375629,5.38425549 29.195717,5.25366151 27.5018365,5.25366151 C11.4084413,5.25366151 0,16.9857608 0,33 C0,40.0276648 2.19524954,46.2308788 6.02193803,50.9816924 L0.264458395,60.8659479 L8.9236343,60.8659479 L11.6698388,56.1505289 C12.7888896,56.9041904 13.9716063,57.5693653 15.2173768,58.1460537 L10.6462869,66 L19.3017898,66 L22.5811963,60.3667616 C24.1624371,60.6200163 25.8073438,60.75 27.5018365,60.75 C43.5909465,60.75 55,49.0148495 55,33 C55,25.9729455 52.8041383,19.7691212 48.978062,15.0219691" id="Fill-1"></path>
                        </g>
                    </g>
                </g>
            </g>
        </g>
    </g>
</svg>