<?xml version="1.0" encoding="utf-8"?>
<!-- Generator: Adobe Illustrator 19.2.0, SVG Export Plug-In . SVG Version: 6.00 Build 0)  -->
<svg version="1.1" id="LinkedIn" xmlns="http://www.w3.org/2000/svg" xmlns:xlink="http://www.w3.org/1999/xlink" x="0px" y="0px"
	 viewBox="0 0 291.3 291.3" style="enable-background:new 0 0 291.3 291.3;" xml:space="preserve">
<style type="text/css">
	.st0{fill:#0E76A8;}
	.st1{fill:#FFFFFF;}
</style>
<path id="round" class="st0" d="M145.7,0c80.4,0,145.7,65.2,145.7,145.7s-65.2,145.7-145.7,145.7S0,226.1,0,145.7S65.2,0,145.7,0z"
	/>
<path id="in" class="st1" d="M82.1,200.1h27.3v-90.9H82.1V200.1z M188.3,106.1c-13.2,0-25.1,4.8-33.5,15.5v-12.7h-27.4v91.2h27.4
	v-49.3c0-10.4,9.6-20.6,21.5-20.6s14.9,10.2,14.9,20.3v49.6h27.3v-51.6C218.6,112.7,201.6,106.1,188.3,106.1z M95.6,100.1
	c7.5,0,13.7-6.1,13.7-13.7s-6.1-13.7-13.7-13.7s-13.7,6.1-13.7,13.7S88.1,100.1,95.6,100.1z"/>
</svg>
