<?xml version="1.0" encoding="UTF-8"?>
<svg width="60px" height="60px" viewBox="0 0 60 60" version="1.1" xmlns="http://www.w3.org/2000/svg" xmlns:xlink="http://www.w3.org/1999/xlink">
    <!-- Generator: Sketch 49 (51002) - http://www.bohemiancoding.com/sketch -->
    <title>ico</title>
    <desc>Created with Sketch.</desc>
    <defs>
        <linearGradient x1="100%" y1="0%" x2="-38.3418912%" y2="100%" id="linearGradient-1">
            <stop stop-color="#3DDAD7" offset="0%"></stop>
            <stop stop-color="#89E200" offset="100%"></stop>
        </linearGradient>
    </defs>
    <g id="Page-1" stroke="none" stroke-width="1" fill="none" fill-rule="evenodd">
        <g id="05" transform="translate(-1090.000000, -3160.000000)" fill="url(#linearGradient-1)" fill-rule="nonzero" stroke="url(#linearGradient-1)">
            <g id="4-screen" transform="translate(0.000000, 2740.000000)">
                <g id="top" transform="translate(330.000000, 80.000000)">
                    <g id="3" transform="translate(640.000000, 310.000000)">
                        <g id="ico" transform="translate(120.000000, 30.000000)">
                            <path d="M11.75,39.25 L11.75,52.1402414 C15.1594221,53.2880281 24.1360903,56.4418187 25.8360653,56.9674712 C29.2840253,58.0336216 31.3638114,58.3179929 33.5129232,57.9659512 C35.5963447,57.6246701 37.7457536,56.718411 41.96886,54.4892278 C43.0349621,53.9264816 47.6719329,51.4309048 48.7963649,50.8318112 C51.8757122,49.1911452 54.7551802,47.6952767 57.8938531,46.1196486 C55.6380805,44.0329435 53.8130306,43.5386292 51.4074394,44.2245659 L40.5086861,47.8402777 C39.9666303,48.6552617 38.9637349,49.25 37.5,49.25 L23.75,49.25 C23.4738576,49.25 23.25,49.0261424 23.25,48.75 C23.25,48.4738576 23.4738576,48.25 23.75,48.25 L37.5,48.25 C40.8158333,48.25 40.8158333,44.25 37.5,44.25 L30,44.25 C29.8673918,44.25 29.7402148,44.1973216 29.6464466,44.1035534 C26.8491436,41.3062504 23.2377804,39.25 18.75,39.25 L11.75,39.25 Z M11.75,38.25 L18.75,38.25 C23.4791743,38.25 27.2599787,40.3582242 30.2057491,43.25 L37.5,43.25 C40.0248201,43.25 41.1784877,45.0195462 40.9610028,46.6366658 L51.1128131,43.2691884 C54.0885409,42.420143 56.3669328,43.1624004 59.103387,45.8962803 C59.3449057,46.1375718 59.278934,46.5445875 58.9735629,46.6972355 C55.5944637,48.3863707 52.5444312,49.9679348 49.2665843,51.7143607 C48.1454475,52.3116987 43.5060871,54.8085615 42.4356713,55.3735847 C38.1203689,57.651434 35.8974998,58.5886662 33.6745768,58.9527988 C31.3449772,59.3344058 29.1232727,59.0306298 25.5406535,57.9228413 C23.8708097,57.4065057 15.356997,54.4174499 11.75,53.1957373 L11.75,56.25 C11.75,56.5261424 11.5261424,56.75 11.25,56.75 L1.25,56.75 C0.973857625,56.75 0.75,56.5261424 0.75,56.25 L0.75,36.25 C0.75,35.9738576 0.973857625,35.75 1.25,35.75 L11.25,35.75 C11.5261424,35.75 11.75,35.9738576 11.75,36.25 L11.75,38.25 Z M10.75,52.4884675 L10.75,36.75 L1.75,36.75 L1.75,55.75 L10.75,55.75 L10.75,52.5116741 C10.7498196,52.5039578 10.7498187,52.4962222 10.75,52.4884699 Z M38.6951099,28.4146489 C38.5996091,28.5377849 38.5046905,28.6622549 38.410355,28.7880355 C37.187238,30.4188582 36.1372782,32.1687913 35.2623024,33.9187429 C34.9561783,34.530991 34.6939944,35.099056 34.4758447,35.6080721 C34.3458285,35.9114433 34.259917,36.1262221 34.2181646,36.2375617 C34.0429343,36.7048425 33.366467,36.6552616 33.2612408,36.1674252 C33.2462003,36.0976964 33.2133978,35.9573361 33.161231,35.7510656 C33.0734427,35.4039462 32.9630818,35.000333 32.8285493,34.5449476 C32.4431032,33.2402333 31.9417572,31.7848959 31.311772,30.2167033 C30.2795879,27.6473362 29.0281642,25.0777957 27.5385182,22.5647625 C25.8380638,26.1007175 23.5931972,27.6504573 20.9976863,27.3360592 C18.8040958,27.0703463 16.5103129,25.4661589 14.4224346,23.007167 C10.5572971,18.4500888 9.44447783,6.92452405 12.5692387,1.01502794 C12.7184983,0.732750672 13.0904983,0.660805627 13.3342432,0.867075562 C14.8889751,2.18277246 16.615572,3.12145654 18.7697457,3.91990223 C19.7616838,4.28756465 20.1969868,4.42455981 22.4477718,5.10389798 C26.7180594,6.39276803 28.6613857,7.32766273 30.4323973,9.41513485 C34.6170867,14.339915 34.5292906,18.9084655 28.3540157,21.9793741 C29.8902503,24.5616971 31.1786515,27.2027259 32.2396951,29.8439316 C32.8818318,31.4423723 33.3934333,32.9274801 33.7875745,34.261627 C33.8138303,34.3505012 33.8392037,34.4375057 33.863706,34.5226081 C34.0166342,34.1892339 34.1846844,33.8379108 34.3678752,33.4715293 C35.2680473,31.671185 36.3482649,29.8708223 37.610355,28.1880355 C37.7861827,27.9535987 37.9640528,27.7234368 38.1439708,27.4976899 C34.1183228,24.5649766 34.6936105,20.6663807 38.4725702,18.146028 C39.9362676,17.1702297 41.1701166,16.7223546 43.7610165,16.0517608 C47.1380437,15.1776964 48.5594884,14.6310447 50.5064468,13.1627921 C50.7612126,12.9706664 51.128317,13.0631069 51.2617121,13.3529752 C53.3076055,17.7987142 52.0310202,26.1462329 49.0151558,29.3237104 C45.453845,33.0758634 41.121785,33.2893071 38.6951099,28.4146489 Z M38.7824259,26.7253944 C40.5834084,24.6266174 42.5797035,22.9631312 44.7763932,21.8647864 C45.0233825,21.7412918 45.323719,21.841404 45.4472136,22.0883932 C45.5707082,22.3353825 45.470596,22.635719 45.2236068,22.7592136 C43.098065,23.8219845 41.152824,25.4636778 39.3933895,27.5506981 C41.438481,32.141634 45.0590775,32.0391855 48.2898442,28.6352896 C50.8983205,25.8870312 52.1187,18.5483941 50.5872132,14.3417512 C48.7542912,15.6323967 47.2099442,16.1920393 44.0115862,17.0198594 C41.5230698,17.6639536 40.3714095,18.0819924 39.02739,18.9779986 C35.7693647,21.1509401 35.3166787,24.2350881 38.7824259,26.7253944 Z M27.833235,21.1216688 C33.4237476,18.3818169 33.4904651,14.5582974 29.670231,10.0625161 C28.0625306,8.16747804 26.2531443,7.29700194 22.1588234,6.06124265 C19.8844878,5.37479637 19.4417381,5.23545763 18.4222003,4.8575654 C16.3896039,4.10418237 14.7056078,3.22339045 13.1831966,2.03312977 C10.5885494,7.73849115 11.7028376,18.2547134 15.1848928,22.3601296 C17.1252295,24.6453547 19.2252842,26.1140558 21.1179387,26.3433158 C23.32938,26.611191 25.2684125,25.1993368 26.8275028,21.7217054 C26.8533171,21.6641253 26.889549,21.6124755 26.9338689,21.5690621 C25.9827728,20.0398953 24.9413965,18.5347358 23.8053804,17.0666005 C21.9896395,14.7200198 19.9763995,12.5324408 17.7555176,10.5336471 C17.5502626,10.3489176 17.5336234,10.0327726 17.7183529,9.82751763 C17.9030824,9.62226262 18.2192274,9.60562342 18.4244824,9.79035293 C20.6909816,11.8302023 22.7447384,14.0618067 24.5962618,16.454631 C25.7737083,17.9763091 26.8510954,19.5365734 27.833235,21.1216688 Z" id="Combined-Shape"></path>
                        </g>
                    </g>
                </g>
            </g>
        </g>
    </g>
</svg>