<?xml version="1.0" encoding="UTF-8"?>
<svg width="20px" height="18px" viewBox="0 0 20 18" version="1.1" xmlns="http://www.w3.org/2000/svg" xmlns:xlink="http://www.w3.org/1999/xlink">
    <!-- Generator: Sketch 49 (51002) - http://www.bohemiancoding.com/sketch -->
    <title>icon-gift</title>
    <desc>Created with Sketch.</desc>
    <defs>
        <linearGradient x1="100%" y1="0%" x2="-38.3418912%" y2="100%" id="linearGradient-1">
            <stop stop-color="#3DDAD7" offset="0%"></stop>
            <stop stop-color="#89E200" offset="100%"></stop>
        </linearGradient>
    </defs>
    <g id="Page-1" stroke="none" stroke-width="1" fill="none" fill-rule="evenodd">
        <g id="icon-gift" fill="url(#linearGradient-1)" fill-rule="nonzero" stroke="url(#linearGradient-1)" stroke-width="0.3">
            <path d="M17.9999641,3.52174219 L15.641233,3.52174219 C15.8689163,3.17608594 15.9999681,2.77533984 15.9999681,2.34783984 C15.9999681,1.05324609 14.803692,0 13.3332934,0 C11.9434745,0 10.7171707,0.627433594 9.99998003,1.57735547 C9.28278938,0.627433594 8.0564856,0 6.66666667,0 C5.1962681,0 3.99999201,1.05324609 3.99999201,2.34783984 C3.99999201,2.77533984 4.13104372,3.17612109 4.3587271,3.52174219 L1.99999601,3.52174219 C0.897197083,3.52174219 0,4.31166797 0,5.28261328 L0,8.02174219 C0,8.34588281 0.298480048,8.60871094 0.666678646,8.60871094 L1.33335729,8.60871094 L1.33335729,16.2391289 C1.33335729,17.2100742 2.23055437,18 3.3333533,18 C3.89114163,18 16.0524367,18 16.6666467,18 C17.7694456,18 18.6666427,17.2100742 18.6666427,16.2391289 L18.6666427,8.60871094 L19.3333214,8.60871094 C19.70148,8.60871094 20,8.34591797 20,8.02174219 L20,5.28261328 C19.9999601,4.31166797 19.102763,3.52174219 17.9999641,3.52174219 Z M7.33332002,1 C8.80372152,1 10,1.89720438 10,3 C9.70802803,3 7.67260966,3 7.33332002,3 C6.59811927,3 6,2.55141278 6,2.00001497 C5.99996007,1.44861716 6.59811927,1 7.33332002,1 Z M8,17 L2.75001685,17 C2.33646539,17 2,16.7436457 2,16.4285592 L2,9 L8,9 L8,17 Z M8,7 C7.70802063,7 1.29411765,7 1,7 L1,5.4285806 C1,5.19226573 1.31403295,5 1.70001258,5 C1.82650623,5 7.86185066,5 8,5 L8,7 Z M11,17 L9,17 L9,9 L11,9 L11,17 Z M10,7 L9,7 L9,5 C9.36186398,5 9.63813602,5 10,5 L10,7 Z M13.66668,1 C14.4018807,1 15,1.44859393 15,2 C15,2.55140607 14.4018807,3 13.66668,3 C13.360333,3 11.2874199,3 11,3 C11.0000399,1.89721781 12.1962785,1 13.66668,1 Z M18,16.4285592 C18,16.7436457 17.6635371,17 17.2499888,17 L12,17 L12,9 L18,9 L17.9999551,16.4285592 L18,16.4285592 Z M19,7 C18.7057146,7 12.2917278,7 12,7 L12,5 C12.1381913,5 18.1735776,5 18.2999874,5 C18.685967,5 19,5.19226573 19,5.4285806 L19,7 Z"></path>
        </g>
    </g>
</svg>