<?xml version="1.0" encoding="UTF-8"?>
<svg width="20px" height="18px" viewBox="0 0 20 18" version="1.1" xmlns="http://www.w3.org/2000/svg" xmlns:xlink="http://www.w3.org/1999/xlink">

    <g id="Page-1" stroke="none" stroke-width="1" fill="none" fill-rule="evenodd">
        <g id="icon-trees" fill="#ffc107" stroke="#ffc107" stroke-width="0.3">
            <path d="M15.9243283,13.6922258 L15.9243283,11.8709357 C15.9243283,11.7095014 15.7941193,11.5786034 15.6335346,11.5786034 C15.4727565,11.5786034 15.3425475,11.7095014 15.3425475,11.8709357 L15.3425475,13.6922258 L14.5357548,13.6922258 L13.7591442,11.3522064 L15.6335346,5.70472887 L18.2845356,13.6922258 L15.9243283,13.6922258 Z M10.1556634,12.0891637 L11.6510354,10.4769602 C11.7605425,10.3587047 11.7541578,10.173736 11.6367182,10.0636495 C11.5190851,9.95336847 11.3350899,9.95998144 11.2255828,10.0780424 L10.1556634,11.2316169 L10.1556634,8.94469584 C10.1556634,8.78326154 10.025261,8.65236361 9.86467631,8.65236361 C9.70389819,8.65236361 9.57368919,8.78326154 9.57368919,8.94469584 L9.57368919,11.2127505 L8.50202852,10.0762919 C8.39136055,9.95920345 8.20717189,9.95414647 8.09069966,10.0654 C7.97403394,10.176459 7.96919706,10.3614277 8.07967155,10.4787107 L9.57368919,12.0629063 L9.57368919,13.6922258 L5.80672164,13.6922258 L9.86467631,1.46639773 L13.9224375,13.6922258 L10.1556634,13.6922258 L10.1556634,12.0891637 Z M4.09562452,11.5786034 C3.93503987,11.5786034 3.80483087,11.7095014 3.80483087,11.8709357 L3.80483087,13.6922258 L1.44462352,13.6922258 L4.09562452,5.70472887 L5.97020842,11.3522064 L5.19359785,13.6922258 L4.38661163,13.6922258 L4.38661163,11.8709357 C4.38661163,11.7095014 4.25640264,11.5786034 4.09562452,11.5786034 Z M6.98015041,4.21097534 L7.66021672,6.26021847 L6.27686705,10.4283354 L5.59660727,8.37928679 L6.98015041,4.21097534 Z M12.7490087,4.21097534 L14.1323584,8.37928679 L13.4524856,10.4283354 L12.0689424,6.26002397 L12.7490087,4.21097534 Z M18.964215,13.8921709 L15.9094307,4.68827628 C15.8699617,4.56885379 15.7587133,4.48833114 15.6335346,4.48833114 C15.508356,4.48833114 15.3971076,4.56885379 15.3574451,4.68827628 L14.4392105,7.45541579 L13.0250982,3.19432825 C12.9854358,3.07510026 12.8741874,2.99457761 12.7490087,2.99457761 C12.6238301,2.99457761 12.5127752,3.07510026 12.4731127,3.19432825 L11.7622838,5.33615297 L10.1403789,0.449945134 C10.1009099,0.330522651 9.98985495,0.25 9.86467631,0.25 C9.73949768,0.25 9.62824928,0.330522651 9.5885868,0.449945134 L7.96687535,5.33615297 L7.25604644,3.19452275 C7.21657745,3.07510026 7.10532905,2.99457761 6.98015041,2.99457761 C6.85497178,2.99457761 6.74372338,3.07510026 6.70425438,3.19452275 L5.29014212,7.45541579 L4.37171402,4.68827628 C4.33205155,4.56885379 4.22080315,4.48833114 4.09562452,4.48833114 C3.97044588,4.48833114 3.85939096,4.56885379 3.81972848,4.68827628 L0.764944166,13.8921709 C0.735342418,13.9812515 0.750240029,14.0792791 0.80499359,14.1555228 C0.859553674,14.2319609 0.947391541,14.2770847 1.0408402,14.2770847 L3.80483087,14.2770847 L3.80483087,17.2739278 C3.80483087,17.4353621 3.93503987,17.5660655 4.09562452,17.5660655 C4.25640264,17.5660655 4.38661163,17.4353621 4.38661163,17.2739278 L4.38661163,14.2770847 L9.57368919,14.2770847 L9.57368919,17.2739278 C9.57368919,17.4353621 9.70389819,17.5660655 9.86467631,17.5660655 C10.025261,17.5660655 10.1556634,17.4353621 10.1556634,17.2739278 L10.1556634,14.2770847 L15.3425475,14.2770847 L15.3425475,17.2739278 C15.3425475,17.4353621 15.4727565,17.5660655 15.6335346,17.5660655 C15.7941193,17.5660655 15.9243283,17.4353621 15.9243283,17.2739278 L15.9243283,14.2770847 L18.688319,14.2770847 C18.7819611,14.2770847 18.8697989,14.2319609 18.924359,14.1555228 C18.9789191,14.0792791 18.9938167,13.9812515 18.964215,13.8921709 Z" id="Fill-5"></path>
        </g>
    </g>
</svg>
