<?xml version="1.0" encoding="UTF-8"?>
<svg width="20px" height="12px" viewBox="0 0 20 12" version="1.1" xmlns="http://www.w3.org/2000/svg" xmlns:xlink="http://www.w3.org/1999/xlink">
    <!-- Generator: Sketch 49 (51002) - http://www.bohemiancoding.com/sketch -->
    <title>Shape</title>
    <desc>Created with Sketch.</desc>
    <defs></defs>
    <g id="Page-1" stroke="none" stroke-width="1" fill="none" fill-rule="evenodd">
        <g id="05" transform="translate(-1210.000000, -8656.000000)" fill="#099999">
            <g id="9-screen" transform="translate(0.000000, 7774.000000)">
                <g id="1" transform="translate(330.000000, 842.000000)">
                    <path d="M899.88747,41.9807016 L890.57072,51.5486803 L890.227772,51.9015302 C890.099167,52.0328233 889.906259,52.0328233 889.784798,51.9015302 L889.44185,51.5486803 L880.110811,41.9642899 C879.967916,41.8165853 879.960771,41.5539993 880.103666,41.3980888 L881.311128,40.1015702 C881.439733,39.9702772 881.632642,39.9620714 881.761247,40.1015702 L889.784798,48.3320013 C889.913403,48.4632943 890.106312,48.4632943 890.227772,48.3320013 L898.144152,40.1015702 C898.272757,39.9702772 898.458521,39.9702772 898.587126,40.1015702 L899.88747,41.4062946 C900.03751,41.5622051 900.03751,41.8247911 899.88747,41.9807016 Z" id="Shape"></path>
                </g>
            </g>
        </g>
    </g>
</svg>