<?xml version="1.0" encoding="utf-8"?>
<svg version="1.1" id="icon" xmlns="http://www.w3.org/2000/svg"
	 viewBox="0 0 34.8 24" style="fill:#ffffff;" >
<path id="twitter" d="M30.9,10.7c2-0.2,3.3-1.1,3.8-2.3c-0.7,0.4-2.9,0.9-4.1,0.5c-0.1-0.3-0.1-0.6-0.2-0.8C29.5,4.7,26.3,2,23,2.3
	c0.3-0.1,0.5-0.2,0.8-0.3c0.4-0.1,2.5-0.5,2.2-1.2c-0.3-0.7-2.9,0.5-3.4,0.7c0.6-0.2,1.7-0.7,1.8-1.4c-1,0.1-2,0.6-2.7,1.3
	c0.3-0.3,0.5-0.7,0.5-1c-2.7,1.7-4.2,5.1-5.5,8.4c-1-1-1.9-1.7-2.6-2.1c-2.2-1.2-4.8-2.4-8.9-3.9C5.1,4,5.9,5.8,8.2,7
	C7.7,6.9,6.8,7.1,6,7.3c0.3,1.6,1.3,2.8,3.9,3.5c-1.2,0.1-1.8,0.4-2.4,0.9c0.5,1.1,1.9,2.4,4.3,2.1c-2.7,1.2-1.1,3.3,1.1,3
	C9.2,20.6,3.4,20.3,0,17.1c8.8,12,27.8,7.1,30.7-4.4c2.1,0,3.4-0.7,4.2-1.6C33.6,11.3,31.8,11.1,30.9,10.7z"/>
</svg>
