<?xml version="1.0" encoding="utf-8"?>
<!-- Generator: Adobe Illustrator 19.2.0, SVG Export Plug-In . SVG Version: 6.00 Build 0)  -->
<svg version="1.1" id="logo" xmlns="http://www.w3.org/2000/svg" xmlns:xlink="http://www.w3.org/1999/xlink" x="0px" y="0px"
	 viewBox="0 0 138 39" style="enable-background:new 0 0 138 39;" xml:space="preserve">
<style type="text/css">
	.st0{fill:#FCFCFC;}
</style>
<path id="symbol" class="st0" d="M17.2,28.2L24,16.6c0.2,0.8,0.3,1.7,0.3,2.6C24.2,24.1,21.4,27.6,17.2,28.2 M10.5,26.2l9-15.4
	c0.7,0.3,1.4,0.8,2,1.3l-9,15.4C11.8,27.2,11.1,26.7,10.5,26.2 M7.8,19.2c0-4.9,2.9-8.5,7.1-9L8.1,21.8C7.9,21,7.8,20.1,7.8,19.2
	 M28.5,8.7L31.8,3h-5l-1.6,2.7c-0.7-0.4-1.3-0.8-2.1-1.2L25.8,0h-5l-1.9,3.3c-1-0.2-1.9-0.2-2.9-0.2C6.6,3.1,0,9.9,0,19.2
	c0,4.1,1.3,7.7,3.5,10.5l-3.3,5.8h5l1.6-2.7c0.7,0.4,1.3,0.8,2.1,1.2l-2.7,4.6h5l1.9-3.3c0.9,0.1,1.9,0.2,2.9,0.2
	c9.4,0,16-6.8,16-16.1C32,15.1,30.7,11.5,28.5,8.7"/>
<g id="name" transform="translate(44.000000, 8.000000)">
	<path id="Fill-3" class="st0" d="M14.2,0.1c2.4,0,4.4,0.5,6.1,1.4c1.7,0.9,3,2.2,4,3.9c0.9,1.7,1.4,3.6,1.4,5.8
		c0,0.9-0.1,1.9-0.3,3.1c-0.4,2.3-1.2,4.3-2.5,6.1c-1.2,1.8-2.8,3.1-4.8,4.1c-1.9,1-4.1,1.5-6.6,1.5c-2.4,0-4.5-0.5-6.2-1.4
		s-3-2.2-3.9-3.8S0,17.1,0,14.9c0-1.1,0.1-2.2,0.3-3.2c0.4-2.3,1.2-4.3,2.5-6.1c1.2-1.7,2.8-3,4.8-4S11.8,0.1,14.2,0.1 M13.6,6.7
		c-1.7,0-3.1,0.5-4.2,1.6s-1.9,2.5-2.2,4.4c-0.1,0.5-0.1,1-0.1,1.6c0,1.6,0.4,2.8,1.3,3.7c0.9,0.9,2.1,1.3,3.7,1.3
		c1.7,0,3.1-0.5,4.2-1.6c1.2-1.1,1.9-2.5,2.2-4.4c0.1-0.7,0.2-1.2,0.2-1.7c0-1.5-0.4-2.7-1.3-3.6C16.4,7.1,15.2,6.7,13.6,6.7"/>
	<polygon id="Fill-6" class="st0" points="93.9,0.5 89.7,25.7 89.7,25.7 82.2,25.7 76.2,12.5 74,25.7 66.5,25.7 69,10.5 77.1,0.5 
		84.1,14.4 86.4,0.5 	"/>
	<polygon id="Fill-8" class="st0" points="41.4,13.4 47.8,25.7 39.5,25.7 36.2,19.2 30.9,25.7 22.2,25.7 32.8,12.6 26.5,0.5 
		34.7,0.5 38,6.9 43.2,0.5 51.9,0.5 	"/>
	<polygon id="Fill-10" class="st0" points="73.7,0.5 60,17.4 58.6,25.7 51.1,25.7 52.5,17 52.5,17 49.7,7.4 55.3,0.5 57.9,9.3 
		65,0.5 	"/>
</g>
</svg>
