<svg id="Layer_1" data-name="Layer 1" xmlns="http://www.w3.org/2000/svg" viewBox="0 0 137.93 38.4"><defs><style>.cls-1{fill:#84dd72;}.cls-2{fill:#8c8c8c;}</style></defs><title>logo-mono</title><path id="Fill-1" class="cls-1" d="M17.18,28.17l6.77-11.62a11.46,11.46,0,0,1,.29,2.61c0,4.9-2.83,8.45-7.06,9m-6.64-2,9-15.39a7.43,7.43,0,0,1,2,1.32l-9,15.37a7.49,7.49,0,0,1-2-1.31m-2.79-7c0-4.92,2.85-8.47,7.1-9L8.06,21.83a11.39,11.39,0,0,1-.3-2.66M28.5,8.74L31.85,3h-5l-1.6,2.75a15.1,15.1,0,0,0-2.07-1.16L25.81,0h-5L18.86,3.28A18.08,18.08,0,0,0,16,3.06C6.64,3.06,0,9.88,0,19.2A16.48,16.48,0,0,0,3.5,29.66L0.15,35.41h5l1.6-2.74a14.87,14.87,0,0,0,2.06,1.16L6.19,38.4h5l1.91-3.28a18.11,18.11,0,0,0,2.86.22c9.36,0,16-6.83,16-16.15A16.47,16.47,0,0,0,28.5,8.74"/><g id="name"><path id="Fill-3" class="cls-2" d="M58.17,8.11A12.73,12.73,0,0,1,64.28,9.5a9.54,9.54,0,0,1,4,3.89A11.91,11.91,0,0,1,69.6,19.2a18.72,18.72,0,0,1-.28,3.06,14.86,14.86,0,0,1-2.47,6.06,12.88,12.88,0,0,1-4.79,4.12,14.33,14.33,0,0,1-6.55,1.47,13.1,13.1,0,0,1-6.21-1.37,9.38,9.38,0,0,1-3.94-3.84A11.83,11.83,0,0,1,44,22.93a16.51,16.51,0,0,1,.28-3.16,14.6,14.6,0,0,1,2.49-6.08,13,13,0,0,1,4.83-4.1,14.44,14.44,0,0,1,6.57-1.47m-0.55,6.58a5.92,5.92,0,0,0-4.24,1.62,7.68,7.68,0,0,0-2.21,4.38A8.56,8.56,0,0,0,51,22.3,5.07,5.07,0,0,0,52.32,26,4.89,4.89,0,0,0,56,27.3a5.91,5.91,0,0,0,4.22-1.64,7.52,7.52,0,0,0,2.19-4.37,9.7,9.7,0,0,0,.18-1.68A4.91,4.91,0,0,0,61.3,16a4.93,4.93,0,0,0-3.67-1.31"/><polygon id="Fill-6" class="cls-2" points="137.93 8.5 133.75 33.65 133.75 33.66 126.22 33.66 120.2 20.54 118.02 33.66 110.49 33.66 113.02 18.46 121.09 8.5 128.09 22.41 130.4 8.5 137.93 8.5"/><polygon id="Fill-8" class="cls-2" points="85.43 21.45 91.76 33.66 83.55 33.66 80.18 27.15 74.91 33.66 66.17 33.66 76.77 20.57 70.51 8.5 78.73 8.5 82.03 14.87 87.18 8.5 95.92 8.5 85.43 21.45"/><polygon id="Fill-10" class="cls-2" points="117.7 8.5 104 25.43 102.63 33.66 95.1 33.66 96.54 25 96.54 25 93.72 15.39 99.3 8.5 101.87 17.27 108.97 8.5 117.7 8.5"/></g></svg>