<svg id="Layer_1" data-name="Layer 1" xmlns="http://www.w3.org/2000/svg" viewBox="0 0 335.91962 88.74158"><defs><style>.cls-1{fill:#7ecfda;}.cls-2{fill:#f16336;}.cls-3{fill:#231f20;}</style></defs><title>Untitled-2</title><polygon id="logo-back" class="cls-1" points="73.739 25.585 52.469 58.757 37.493 58.757 25.512 40.186 39.889 40.186 44.981 47.674 63.556 19.958 30.577 1.735 0.228 56.657 55.151 87.006 85.5 32.084 73.739 25.585"/><polygon id="logo-front" class="cls-2" points="72.261 27.89 52.469 58.757 37.493 58.757 25.512 40.186 39.889 40.186 44.981 47.674 63.851 19.519 63.89 19.519 44.371 0 0 44.371 44.371 88.742 88.742 44.371 72.261 27.89"/><path id="letter-s" class="cls-3" d="M100.37811,60.27313a22.099,22.099,0,0,0,11.83545,3.34863c5.06152,0,9.7334-2.72559,9.7334-7.78711,0-3.42578-2.2583-5.76172-7.39746-8.4873-6.07324-3.26953-10.66748-7.47461-10.66748-13.7041,0-10.04492,8.72119-16.35156,19.31055-16.35156,5.84033,0,9.65576,1.47949,11.68018,2.64746l-2.959,7.55273a19.69516,19.69516,0,0,0-9.49951-2.33594c-5.76221,0-9.03271,3.34863-9.03271,6.85254,0,3.582,2.959,5.68359,7.86475,8.4873,6.38477,3.34766,10.2002,7.55273,10.2002,13.9375,0,10.51172-8.4873,16.97461-20.24512,16.97461-6.38477,0-11.60205-1.791-13.938-3.65918Z"/><path id="letter-w" class="cls-3" d="M144.76141,32.70868l0.70068,18.4541a104.94092,104.94092,0,0,1-.15576,11.21289h0.15576c1.168-3.34766,2.7251-6.85156,4.43848-10.667l9.188-19h7.55273l1.55762,18.53223c0.31152,4.2832.46729,7.78711,0.38916,11.13477h0.15576c1.168-3.65918,2.33594-7.08594,3.89307-11.13477l8.17627-18.53223h9.188L171.3913,70.62958H162.904L161.1911,54.12177c-0.31152-3.7373-.38965-7.16309-0.38965-11.21191h-0.15576c-1.86865,4.59375-2.80322,7.47461-4.51611,10.82324l-8.40967,16.89648h-8.4873l-3.50391-37.9209h9.03271Z"/><path id="letter-e" class="cls-3" d="M215.77509,68.44891a30.43362,30.43362,0,0,1-13.39258,2.959c-10.51172,0-15.57324-6.38477-15.57324-15.65039,0-11.44629,8.40967-23.90527,21.49072-23.90527,7.4751,0,12.2251,4.36035,12.2251,10.668,0,9.7334-10.2002,12.84766-24.83887,12.53613a10.47026,10.47026,0,0,0,1.01221,5.373c1.479,2.56934,4.20459,3.89355,7.78613,3.89355a22.415,22.415,0,0,0,10.43408-2.49219ZM207.132,38.62665c-5.68408,0-9.42139,5.06152-10.51172,9.65527,9.34375,0.15625,15.33936-1.168,15.33936-5.68359C211.95966,40.10614,210.01337,38.62665,207.132,38.62665Z"/><path id="letter-e-2" data-name="letter-e" class="cls-3" d="M250.96942,68.44891a30.43362,30.43362,0,0,1-13.39258,2.959c-10.51172,0-15.57324-6.38477-15.57324-15.65039,0-11.44629,8.40918-23.90527,21.49121-23.90527,7.47461,0,12.22461,4.36035,12.22461,10.668,0,9.7334-10.2002,12.84766-24.83887,12.53613a10.46962,10.46962,0,0,0,1.01172,5.373c1.47949,2.56934,4.20508,3.89355,7.78711,3.89355A22.41441,22.41441,0,0,0,250.113,61.83075Zm-8.64258-29.82227c-5.68457,0-9.42187,5.06152-10.51172,9.65527,9.34375,0.15625,15.33887-1.168,15.33887-5.68359C247.154,40.10614,245.2077,38.62665,242.32684,38.62665Z"/><path id="letter-n" class="cls-3" d="M256.18622,70.62958l4.90527-26.16309c0.93457-4.51562,1.47949-8.4873,1.94629-11.75781h8.02051L270.28,39.56122h0.15527c3.50391-5.13867,8.332-7.709,13.627-7.709,5.37207,0,9.65527,3.27051,9.65527,10.43457a37.1596,37.1596,0,0,1-.70117,6.30664l-4.20508,22.03613H279.779l4.04883-21.41309a28.54014,28.54014,0,0,0,.46777-4.5166c0-3.11426-1.168-5.4502-4.75-5.4502-4.127,0-9.42187,4.9834-11.05664,13.86035l-3.27051,17.51953h-9.03223Z"/><path id="letter-k" class="cls-3" d="M296.67548,70.62958L307.18719,15.3454h8.9541l-6.38477,33.793h0.15625c1.168-1.40137,2.41309-2.88086,3.42578-4.04883l11.36816-12.38086h11.21289L319.56805,48.36l10.90039,22.26953H320.4245l-7.78711-17.36426-4.43848,4.20508L305.7077,70.62958h-9.03223Z"/></svg>