<?xml version="1.0" encoding="utf-8"?>
<!-- Generator: Adobe Illustrator 19.2.0, SVG Export Plug-In . SVG Version: 6.00 Build 0)  -->
<svg version="1.1" id="icon" xmlns="http://www.w3.org/2000/svg" xmlns:xlink="http://www.w3.org/1999/xlink" x="0px" y="0px"
	 viewBox="0 0 512 512" style="enable-background:new 0 0 512 512;" xml:space="preserve">
<style type="text/css">
	.st0{fill:#84DD72;}
</style>
<path id="icon-form" class="st0" d="M422,116.5l44.5-76.7h-66.9l-21.2,36.6c-8.7-5.8-17.8-11-27.5-15.5L386.2,0h-66.9l-25.4,43.7
	c-12.2-2-24.9-3-38-3c-124.5,0-212.7,91-212.7,215.2c0,54.5,17,102.6,46.6,139.5l-44.5,76.7h67l21.2-36.6c8.7,5.8,17.8,11,27.4,15.5
	L125.5,512h66.9l25.4-43.7c12.2,2,25,3,38.1,3c124.4,0,212.7-91,212.7-215.3C468.5,201.5,451.6,153.4,422,116.5z M146.3,255.6
	c0-65.6,37.9-113,94.4-120.1l-90.3,155.6C147.7,280,146.3,268.1,146.3,255.6z M183.4,349.5l119-205.1c9.7,4.5,18.5,10.4,26.2,17.6
	l-119,205C200,362.5,191.2,356.6,183.4,349.5z M271.6,375.6l89.9-154.9c2.5,10.9,3.9,22.5,3.9,34.9
	C365.4,320.9,327.8,368.2,271.6,375.6z"/>
</svg>
